<svg width="445.819214" height="446.650482" viewBox="0 0 445.819 446.65" fill="none" xmlns="http://www.w3.org/2000/svg" xmlns:xlink="http://www.w3.org/1999/xlink">
	<desc>
			Created with Pixso.
	</desc>
	<defs>
		<filter id="filter_1_11091_dd" x="0.000000" y="0.000000" width="445.819214" height="446.650482" filterUnits="userSpaceOnUse" color-interpolation-filters="sRGB">
			<feFlood flood-opacity="0" result="BackgroundImageFix"/>
			<feColorMatrix in="SourceAlpha" type="matrix" values="0 0 0 0 0 0 0 0 0 0 0 0 0 0 0 0 0 0 127 0" result="hardAlpha"/>
			<feOffset dx="0" dy="32"/>
			<feGaussianBlur stdDeviation="21.3333"/>
			<feComposite in2="hardAlpha" operator="out" k2="-1" k3="1"/>
			<feColorMatrix type="matrix" values="0 0 0 0 0 0 0 0 0 0 0 0 0 0 0 0 0 0 0.039 0"/>
			<feBlend mode="normal" in2="BackgroundImageFix" result="effect_dropShadow_1"/>
			<feColorMatrix in="SourceAlpha" type="matrix" values="0 0 0 0 0 0 0 0 0 0 0 0 0 0 0 0 0 0 127 0" result="hardAlpha"/>
			<feMorphology radius="1" in="" result="effect_dropShadow_1"/>
			<feOffset dx="0" dy="0"/>
			<feGaussianBlur stdDeviation="0.666667"/>
			<feComposite in2="hardAlpha" operator="out" k2="-1" k3="1"/>
			<feColorMatrix type="matrix" values="0 0 0 0 0 0 0 0 0 0 0 0 0 0 0 0 0 0 0.02 0"/>
			<feBlend mode="normal" in2="effect_dropShadow_1" result="effect_dropShadow_2"/>
			<feBlend mode="normal" in="SourceGraphic" in2="effect_dropShadow_2" result="shape"/>
		</filter>
		<linearGradient x1="422.046326" y1="444.604370" x2="138.792267" y2="92.821304" id="paint_linear_1_11093_0" gradientUnits="userSpaceOnUse">
			<stop stop-color="#EDCAB8"/>
			<stop offset="1.000000" stop-color="#FFFFFF"/>
		</linearGradient>
		<linearGradient x1="74.074409" y1="144.016266" x2="169.561783" y2="217.063751" id="paint_linear_1_11109_0" gradientUnits="userSpaceOnUse">
			<stop stop-color="#FEBBBA"/>
			<stop offset="1.000000" stop-color="#FF928E"/>
		</linearGradient>
		<linearGradient x1="174.458023" y1="130.279984" x2="174.255905" y2="130.279984" id="paint_linear_1_11110_0" gradientUnits="userSpaceOnUse">
			<stop stop-color="#09005D"/>
			<stop offset="1.000000" stop-color="#1A0F91"/>
		</linearGradient>
		<linearGradient x1="171.002625" y1="130.085907" x2="171.002625" y2="130.103241" id="paint_linear_1_11111_0" gradientUnits="userSpaceOnUse">
			<stop stop-color="#53EAC9"/>
			<stop offset="0.996400" stop-color="#45AED8"/>
		</linearGradient>
		<linearGradient x1="171.030563" y1="130.145157" x2="171.056122" y2="130.184891" id="paint_linear_1_11112_0" gradientUnits="userSpaceOnUse">
			<stop stop-color="#53EAC9"/>
			<stop offset="0.996400" stop-color="#45AED8"/>
		</linearGradient>
		<linearGradient x1="154.814911" y1="304.002075" x2="236.075470" y2="392.390930" id="paint_linear_1_11113_0" gradientUnits="userSpaceOnUse">
			<stop stop-color="#09005D"/>
			<stop offset="1.000000" stop-color="#1A0F91"/>
		</linearGradient>
		<linearGradient x1="181.191544" y1="310.566925" x2="173.973602" y2="310.566925" id="paint_linear_1_11114_0" gradientUnits="userSpaceOnUse">
			<stop stop-color="#FEBBBA"/>
			<stop offset="1.000000" stop-color="#FF928E"/>
		</linearGradient>
		<linearGradient x1="173.044891" y1="287.243439" x2="254.305756" y2="375.632477" id="paint_linear_1_11116_0" gradientUnits="userSpaceOnUse">
			<stop stop-color="#09005D"/>
			<stop offset="1.000000" stop-color="#1A0F91"/>
		</linearGradient>
		<linearGradient x1="207.204269" y1="310.197113" x2="200.972183" y2="310.197113" id="paint_linear_1_11117_0" gradientUnits="userSpaceOnUse">
			<stop stop-color="#FEBBBA"/>
			<stop offset="1.000000" stop-color="#FF928E"/>
		</linearGradient>
		<linearGradient x1="214.990982" y1="138.828262" x2="206.204163" y2="134.176422" id="paint_linear_1_11120_0" gradientUnits="userSpaceOnUse">
			<stop stop-color="#FEBBBA"/>
			<stop offset="1.000000" stop-color="#FF928E"/>
		</linearGradient>
		<linearGradient x1="180.789871" y1="158.484116" x2="148.120728" y2="134.973221" id="paint_linear_1_11123_0" gradientUnits="userSpaceOnUse">
			<stop stop-color="#9CFFFB"/>
			<stop offset="1.000000" stop-color="#9BFFFA"/>
		</linearGradient>
		<linearGradient x1="171.373444" y1="140.773148" x2="145.713455" y2="247.689987" id="paint_linear_1_11129_0" gradientUnits="userSpaceOnUse">
			<stop stop-color="#969696"/>
			<stop offset="1.000000" stop-color="#EECBB9"/>
		</linearGradient>
		<linearGradient x1="158.486420" y1="94.478264" x2="158.996460" y2="120.228600" id="paint_linear_1_11130_0" gradientUnits="userSpaceOnUse">
			<stop stop-color="#454545"/>
			<stop offset="1.000000" stop-color="#686868"/>
		</linearGradient>
		<linearGradient x1="159.063690" y1="94.467094" x2="159.573486" y2="120.217484" id="paint_linear_1_11131_0" gradientUnits="userSpaceOnUse">
			<stop stop-color="#5A5A5A"/>
			<stop offset="1.000000" stop-color="#747474"/>
		</linearGradient>
		<linearGradient x1="188.956741" y1="169.058411" x2="174.418365" y2="169.058411" id="paint_linear_1_11132_0" gradientUnits="userSpaceOnUse">
			<stop stop-color="#FEBBBA"/>
			<stop offset="1.000000" stop-color="#FF928E"/>
		</linearGradient>
		<linearGradient x1="174.574738" y1="106.970612" x2="202.231781" y2="122.475250" id="paint_linear_1_11136_0" gradientUnits="userSpaceOnUse">
			<stop stop-color="#FEBBBA"/>
			<stop offset="1.000000" stop-color="#FF928E"/>
		</linearGradient>
		<linearGradient x1="177.088348" y1="102.487587" x2="204.745453" y2="117.992317" id="paint_linear_1_11138_0" gradientUnits="userSpaceOnUse">
			<stop stop-color="#FEBBBA"/>
			<stop offset="1.000000" stop-color="#FF928E"/>
		</linearGradient>
		<linearGradient x1="171.002625" y1="130.085907" x2="171.002625" y2="130.103241" id="paint_linear_1_11140_0" gradientUnits="userSpaceOnUse">
			<stop stop-color="#53EAC9"/>
			<stop offset="0.996400" stop-color="#45AED8"/>
		</linearGradient>
		<linearGradient x1="234.811615" y1="145.307083" x2="194.273956" y2="220.263809" id="paint_linear_1_11147_0" gradientUnits="userSpaceOnUse">
			<stop stop-color="#343434"/>
			<stop offset="1.000000" stop-color="#343434"/>
		</linearGradient>
		<linearGradient x1="83.271545" y1="131.390396" x2="262.240540" y2="304.049866" id="paint_linear_1_11151_0" gradientUnits="userSpaceOnUse">
			<stop stop-color="#000000"/>
			<stop offset="1.000000" stop-color="#343434"/>
		</linearGradient>
		<linearGradient x1="354.382904" y1="-18.708855" x2="317.286896" y2="25.653332" id="paint_linear_1_11157_0" gradientUnits="userSpaceOnUse">
			<stop offset="0.060000" stop-color="#2B3134"/>
			<stop offset="1.000000" stop-color="#565656"/>
		</linearGradient>
		<linearGradient x1="407.343658" y1="25.577709" x2="370.247742" y2="69.939888" id="paint_linear_1_11158_0" gradientUnits="userSpaceOnUse">
			<stop stop-color="#09005D"/>
			<stop offset="1.000000" stop-color="#565656"/>
		</linearGradient>
		<linearGradient x1="203.148926" y1="67.204018" x2="213.647964" y2="61.809917" id="paint_linear_1_11159_0" gradientUnits="userSpaceOnUse">
			<stop stop-color="#0D0D0D"/>
			<stop offset="1.000000" stop-color="#969696"/>
		</linearGradient>
		<linearGradient x1="269.767273" y1="42.366146" x2="213.932129" y2="64.164818" id="paint_linear_1_11160_0" gradientUnits="userSpaceOnUse">
			<stop stop-color="#FF928E"/>
			<stop offset="1.000000" stop-color="#EDCAB8"/>
		</linearGradient>
		<linearGradient x1="253.298157" y1="196.561096" x2="235.996414" y2="238.959244" id="paint_linear_1_11162_0" gradientUnits="userSpaceOnUse">
			<stop stop-color="#FEBBBA"/>
			<stop offset="1.000000" stop-color="#FF928E"/>
		</linearGradient>
		<linearGradient x1="247.465714" y1="196.006317" x2="290.793457" y2="27.296318" id="paint_linear_1_11164_0" gradientUnits="userSpaceOnUse">
			<stop stop-color="#FEBBBA"/>
			<stop offset="1.000000" stop-color="#FF928E"/>
		</linearGradient>
		<linearGradient x1="203.258728" y1="100.797165" x2="174.958801" y2="166.575455" id="paint_linear_1_11167_0" gradientUnits="userSpaceOnUse">
			<stop stop-color="#E2E2E2"/>
			<stop offset="1.000000" stop-color="#EDCAB8"/>
		</linearGradient>
		<linearGradient x1="82.778931" y1="127.187744" x2="82.778931" y2="181.627182" id="paint_linear_1_11169_0" gradientUnits="userSpaceOnUse">
			<stop stop-color="#EDCAB8"/>
			<stop offset="1.000000" stop-color="#DADADA"/>
		</linearGradient>
		<linearGradient x1="116.474068" y1="196.817535" x2="76.460983" y2="235.494949" id="paint_linear_1_11171_0" gradientUnits="userSpaceOnUse">
			<stop stop-color="#FEBBBA"/>
			<stop offset="1.000000" stop-color="#FF928E"/>
		</linearGradient>
		<linearGradient x1="114.275475" y1="161.951553" x2="99.419647" y2="148.432022" id="paint_linear_1_11172_0" gradientUnits="userSpaceOnUse">
			<stop stop-color="#FEBBBA"/>
			<stop offset="1.000000" stop-color="#FF928E"/>
		</linearGradient>
		<linearGradient x1="103.883263" y1="146.808197" x2="72.996590" y2="104.617218" id="paint_linear_1_11174_0" gradientUnits="userSpaceOnUse">
			<stop stop-color="#FEBBBA"/>
			<stop offset="1.000000" stop-color="#FF928E"/>
		</linearGradient>
		<linearGradient x1="98.836441" y1="150.501892" x2="67.950043" y2="108.311203" id="paint_linear_1_11176_0" gradientUnits="userSpaceOnUse">
			<stop stop-color="#FEBBBA"/>
			<stop offset="1.000000" stop-color="#FF928E"/>
		</linearGradient>
	</defs>
	<g filter="url(#filter_1_11091_dd)">
		<path id="Vector" d="M344.12 305.87C337.61 312.72 331.45 317.14 326.59 320.63C269.42 361.65 201.77 349.69 187.39 346.77C166.16 342.46 125.12 334.12 95.44 299.23C50.55 246.44 57.54 163.27 92.36 108.37C98.73 98.33 132.38 42.59 200.76 33.65C242.14 28.24 290.38 39.15 325.31 68.42C398.64 129.85 393.42 253.96 344.12 305.87Z" fill="url(#paint_linear_1_11093_0)" fill-opacity="1.000000" fill-rule="nonzero"/>
		<path id="Vector" d="M313.09 212.26C314.17 214.85 317.54 215.5 319.53 213.52C330.5 202.59 358.72 168.89 353.32 115.71C348.76 70.81 350.55 46.02 352.15 34.83C352.49 32.46 349.61 31.04 347.93 32.74C329.43 51.55 274.07 118.37 313.09 212.26Z" fill="#656972" fill-opacity="1.000000" fill-rule="nonzero"/>
		<path id="Vector" d="M316.89 212.11C316.95 212.14 317.01 212.17 317.08 212.2C317.65 212.4 318.28 212.11 318.48 211.54C318.72 210.89 341.74 146.31 338.22 83.58C338.19 82.98 337.67 82.52 337.07 82.55C336.46 82.58 336 83.1 336.03 83.71C339.53 145.97 316.65 210.15 316.42 210.8C316.24 211.3 316.45 211.84 316.89 212.11Z" fill="#FFFFFF" fill-opacity="1.000000" fill-rule="nonzero"/>
		<path id="Vector" d="M381.72 68.2C382.36 66.26 379.69 64.7 377.86 65.93C359.3 78.43 313.96 116.79 317.79 191.19C321.78 268.41 305.2 303.42 282.65 323.43C279.9 325.88 282.56 330.31 286 329.01C299.66 323.82 318.56 313.96 333.7 295.98C399.88 217.39 370.32 102.67 381.72 68.2Z" fill="#2D2D2D" fill-opacity="1.000000" fill-rule="nonzero"/>
		<path id="Vector" d="M365.98 95.83C362.9 105.9 360.06 116.02 357.65 126.23C355.17 136.42 353.06 146.69 351.32 157C349.63 167.32 348.16 177.67 347.21 188.07C346.2 198.46 345.71 208.9 345.26 219.37C344.74 229.84 344.29 240.39 342.58 250.9C340.89 261.39 337.72 271.84 332.43 281.44C331.1 283.82 329.72 286.2 328.19 288.48C326.71 290.79 325.11 293.04 323.46 295.26C320.14 299.69 316.47 303.92 312.44 307.9C304.36 315.83 294.86 322.65 284.56 328.23C283.48 328.82 282.03 328.52 281.32 327.57C280.63 326.63 280.91 325.41 281.95 324.81L281.95 324.81C284.41 323.39 286.85 321.95 289.2 320.41C290.39 319.66 291.53 318.87 292.7 318.09C293.83 317.28 294.99 316.51 296.09 315.66C300.54 312.35 304.72 308.77 308.55 304.94C316.27 297.31 322.67 288.61 327.75 279.45C330.23 274.85 332.31 270.08 333.95 265.19C335.59 260.29 336.8 255.27 337.67 250.17C339.41 239.98 339.96 229.54 340.57 219.08C341.19 208.62 341.9 198.11 343.1 187.66C343.69 182.43 344.38 177.21 345.19 172.01C345.57 169.41 346.02 166.81 346.45 164.22C346.92 161.63 347.4 159.04 347.91 156.46C349.96 146.13 352.38 135.87 355.16 125.7C358.01 115.54 361.17 105.45 364.77 95.5C364.88 95.22 365.23 95.06 365.56 95.16C365.88 95.25 366.07 95.55 365.98 95.83Z" fill="#FFFFFF" fill-opacity="1.000000" fill-rule="nonzero"/>
		<path id="Vector" d="M318.05 200.8C318.05 200.8 319.83 330.37 291.79 340.41C289.5 341.23 287.49 341.04 285.72 340.34C265.75 332.61 275.43 237.89 248.87 231.01L220.11 231.01C191.19 238.28 205.24 350.24 177.2 340.22C175.62 339.65 174.14 338.81 172.75 337.53C172.66 337.45 172.56 337.41 172.47 337.32C149.36 315.25 150.93 200.76 150.93 200.76C126.83 161.89 133.03 109.2 133.03 109.2C130.83 76.61 170.82 49.35 194.04 63.55C208.3 72.28 224.27 75.87 234.49 77.36C242.94 76.13 255.33 73.46 267.43 67.64C269.96 66.42 272.48 65.07 274.95 63.56C298.17 49.35 338.16 76.62 335.96 109.21C335.96 109.21 342.15 161.93 318.05 200.8Z" fill="#FFFFFF" fill-opacity="1.000000" fill-rule="nonzero"/>
		<path id="Vector" d="M318.05 200.79C318.05 200.79 319.83 330.37 291.79 340.41C289.5 341.23 287.49 341.23 285.72 340.54C308.3 321.52 294.99 222.47 288.41 209.72C281.77 196.85 300.73 173.14 308.54 127.75C316.35 82.36 267.43 67.64 267.43 67.64C269.96 66.43 272.48 65.07 274.95 63.56C298.17 49.35 338.16 76.62 335.96 109.21C335.96 109.21 342.15 161.93 318.05 200.79Z" fill="#868686" fill-opacity="1.000000" fill-rule="nonzero"/>
		<path id="Vector" d="M166.76 151.31C166.76 151.31 166.79 151.33 166.82 151.37L166.81 151.38C166.84 151.42 166.86 151.48 166.86 151.55L166.86 151.56L166.87 151.63C166.87 151.71 166.89 151.81 166.91 151.92L166.91 151.97C167.18 153.56 168.67 157.91 170.27 163.55C170.29 163.6 170.3 163.65 170.31 163.7C173.89 176.35 179.07 195.34 180.63 204.16C180.63 204.16 183.41 205 187.71 206.15L187.72 206.15C193.93 207.68 203.3 208.81 212.03 206.53C212.03 206.53 216.72 168.29 211.04 135.12C211.04 135.12 196.14 131.42 180.05 130.41C179.97 130.4 179.89 130.28 179.8 130.28C178.51 130.21 177.2 130.05 175.9 130.05L174.87 130.05C174.72 130.05 174.58 130.05 174.44 130.05L174.41 130.05C173.75 130.05 172.54 130.7 171.13 131.29C171.09 131.31 171.01 131.37 171.01 131.39C171.01 131.39 171 131.37 171 131.37C171 131.37 170.75 131.53 170.64 131.57C170.48 131.64 170.32 131.73 170.15 131.82C170.11 131.84 170.07 131.87 170.03 131.88C170.02 131.89 170 131.9 169.98 131.91C169.87 131.97 169.76 132.03 169.64 132.08C169.62 132.1 169.59 132.11 169.57 132.12C169.44 132.18 169.31 132.26 169.17 132.33C169.14 132.34 169.25 132.35 169.23 132.37C169.07 132.45 168.87 132.54 168.7 132.62C168.55 132.7 168.44 132.78 168.43 132.87L168.41 132.74C168.33 132.78 168.25 132.83 168.17 132.87C168.16 132.87 168.15 132.88 168.15 132.88C167.29 133.38 166.43 133.97 165.63 134.65C165.62 134.66 165.62 134.66 165.61 134.67C165.6 134.68 165.59 134.7 165.58 134.72C161.98 140.7 160.3 150.51 166.76 151.31Z" fill="#656972" fill-opacity="1.000000" fill-rule="evenodd"/>
		<path id="Vector" d="M129.12 161.23C145.33 159.51 152.94 147.02 158.97 139.08C166.92 128.6 175.71 130.41 175.71 130.41L170.33 153.55C158.3 172.71 141.1 173.62 129.53 171.43C128.35 167.54 128.55 163.98 129.12 161.23Z" fill="#2D2D2D" fill-opacity="1.000000" fill-rule="nonzero"/>
		<path id="Vector" d="M104.77 157.62L110.67 159.06C117.86 161.23 123.93 161.78 129.12 161.23C128.55 163.98 128.35 167.54 129.53 171.43C122.17 170.04 117.09 167.39 117.09 167.39C103.55 163.44 104.77 157.62 104.77 157.62Z" fill="#2D2D2D" fill-opacity="1.000000" fill-rule="nonzero"/>
		<path id="Vector" d="M91.42 168.88C91.47 167.68 92.05 166.57 93.02 165.85L102.42 158.9C102.42 158.9 102.23 157.51 99.61 157.22C97 156.92 96.86 154.11 96.86 154.11C96.86 154.11 100.5 154.75 105.86 155.86C108.93 156.5 111.07 158.48 112.35 160.05L110.57 164.31C104.6 167.94 98.15 170.01 91.34 170.96L91.42 168.88Z" fill="url(#paint_linear_1_11109_0)" fill-opacity="1.000000" fill-rule="nonzero"/>
		<path id="Vector" d="M174.25 130.28C174.31 130.28 174.36 130.28 174.41 130.28C174.43 130.27 174.44 130.27 174.45 130.27L174.25 130.28Z" fill="url(#paint_linear_1_11110_0)" fill-opacity="1.000000" fill-rule="nonzero"/>
		<path id="Vector" d="" fill="url(#paint_linear_1_11111_0)" fill-opacity="1.000000" fill-rule="nonzero"/>
		<path id="Vector" d="M170.99 130.11L171.01 130.12L171.01 130.1C171.01 130.1 171 130.11 170.99 130.11Z" fill="url(#paint_linear_1_11112_0)" fill-opacity="1.000000" fill-rule="nonzero"/>
		<path id="Vector" d="M180.5 310.58C180.5 310.58 181.34 315.35 181.75 320.06C181.91 321.91 180.49 323.51 178.64 323.58C172.36 323.84 158.93 324.35 154.11 324.14C153.38 324.1 152.91 323.36 153.18 322.69C153.4 322.12 153.84 321.67 154.39 321.41L176.58 311.22L180.5 310.58Z" fill="url(#paint_linear_1_11113_0)" fill-opacity="1.000000" fill-rule="nonzero"/>
		<path id="Vector" d="M181.19 307.78L180.51 313.48C180.51 313.48 176.62 315.29 173.97 313.25L175.58 306.9L181.19 307.78Z" fill="url(#paint_linear_1_11114_0)" fill-opacity="1.000000" fill-rule="nonzero"/>
		<path id="Vector" d="M180.68 200.65C180.97 202.14 182.25 274.91 174.47 307.52C174.34 308.05 174.61 308.6 175.12 308.81C176.31 309.3 178.65 310 181.45 310.1C182.32 310.13 183.1 309.56 183.34 308.73C185.57 301.16 196.22 263.25 197.61 227.04C199.17 186.57 197.61 225.66 197.61 225.66L196.7 200.64L180.68 200.65Z" fill="#2B3134" fill-opacity="1.000000" fill-rule="nonzero"/>
		<path id="Vector" d="M206.02 313.07C206.02 313.07 207.36 315.47 208.66 321.86C208.89 323.02 208.09 324.12 206.92 324.24C204.84 324.44 201.65 324.7 199.09 324.69C197.91 324.68 196.99 323.65 197.14 322.48C197.42 320.15 198.3 316.32 201.03 313.34L206.02 313.07Z" fill="url(#paint_linear_1_11116_0)" fill-opacity="1.000000" fill-rule="nonzero"/>
		<path id="Vector" d="M207.2 305.74L205.62 314.35C205.62 314.35 204.06 315.52 200.97 314.68L201.72 305.4L207.2 305.74Z" fill="url(#paint_linear_1_11117_0)" fill-opacity="1.000000" fill-rule="nonzero"/>
		<path id="Vector" d="M211.47 202.88C217.83 241.28 210.09 297.78 207.48 308.84C207.32 309.52 206.77 310.04 206.08 310.15C204.92 310.34 203 310.5 201.11 309.95C200.46 309.76 200 309.17 199.97 308.49C199.62 299.55 200.25 244.67 194.32 222.97C194.02 221.87 193.35 220.92 192.42 220.25L180.92 212.07L180.04 198.85L211.47 202.88Z" fill="#2B3134" fill-opacity="1.000000" fill-rule="nonzero"/>
		<path id="Vector" d="M203.72 153.6L211.03 135.13C211.03 135.13 228.84 147.23 231.77 162.58C228.4 162.82 222.28 163.7 216.29 166.73C214.97 159.48 203.72 153.6 203.72 153.6Z" fill="#2D2D2D" fill-opacity="1.000000" fill-rule="nonzero"/>
		<path id="Vector" d="M190.24 114.65L196.31 132.19C196.41 132.48 196.29 132.81 196.02 132.95C194.37 133.87 188.41 136.51 181.23 131.96C180.48 131.48 179.97 130.71 179.86 129.83L177.89 114.65L190.24 114.65Z" fill="url(#paint_linear_1_11120_0)" fill-opacity="1.000000" fill-rule="nonzero"/>
		<path id="Vector" d="M201.75 133.16L194.52 127.01L183.69 153.45L191.58 258.51L216.24 259.25C216.41 259.25 216.58 259.19 216.71 259.06C216.83 258.94 216.9 258.77 216.89 258.6L213.45 157.52C213.45 157.52 213.35 135.68 211.03 135.13C208.71 134.59 201.75 133.16 201.75 133.16Z" fill="#2D2D2D" fill-opacity="1.000000" fill-rule="nonzero"/>
		<path id="Vector" d="M166.84 151.38L166.86 151.55L166.86 151.56L166.87 151.63L166.91 151.92L167.02 151.97L169.15 172.83C169.15 172.83 169.15 172.83 169.15 172.84L177.66 259.87C177.68 260.05 177.69 260.2 177.82 260.31C177.96 260.42 178.1 260.46 178.27 260.44L191.6 258.51L187.72 206.27L187.71 206.19L183.59 152.09L179.86 130.37L179.86 130.36L179.4 127.01L175.85 130.16L175.82 130.17L174.8 130.23L174.38 130.25C173.72 130.42 171.01 131.45 171.01 131.45C171.01 131.46 170.07 131.87 169.61 132.09C169.58 132.1 169.58 132.11 169.56 132.12C169.42 132.18 169.3 132.26 169.16 132.33C169.14 132.34 169.29 132.35 169.27 132.37C168.99 132.52 168.77 132.69 168.77 132.87L168.77 132.88L167.1 151.31L166.97 151.37L166.84 151.38Z" fill="#2D2D2D" fill-opacity="1.000000" fill-rule="nonzero"/>
		<path id="Vector" d="M179.48 153.23L179.48 155.81L170.3 155.23L170.3 152.38L179.48 153.23Z" fill="url(#paint_linear_1_11123_0)" fill-opacity="1.000000" fill-rule="nonzero"/>
		<path id="Vector" d="M184.27 159.47C184.2 159.47 184.14 159.43 184.1 159.37C184.05 159.27 184.09 159.16 184.18 159.11L192.42 154.68L193.57 146.92C193.58 146.84 193.64 146.78 193.72 146.76L196.83 146.21L200 135.89C200.03 135.79 200.14 135.74 200.24 135.77C200.34 135.8 200.4 135.9 200.37 136L197.16 146.43C197.14 146.5 197.08 146.55 197.01 146.57L193.93 147.11L192.78 154.83C192.77 154.89 192.73 154.95 192.68 154.98L184.36 159.44C184.33 159.46 184.3 159.47 184.27 159.47Z" fill="#FFFFFF" fill-opacity="1.000000" fill-rule="nonzero"/>
		<path id="Vector" d="M182.29 156.91C182.24 156.91 182.19 156.89 182.17 156.84L177.77 149.13C177.75 149.1 177.75 149.07 177.75 149.03L178.47 144.74L174.93 142.86C174.88 142.83 174.85 142.78 174.86 142.72L175.76 130.16C175.76 130.08 175.83 130.02 175.91 130.02C175.99 130.03 176.05 130.1 176.04 130.17L175.15 142.65L178.69 144.54C178.75 144.57 178.78 144.63 178.77 144.69L178.04 149.03L182.42 156.7C182.46 156.77 182.43 156.86 182.36 156.89C182.34 156.91 182.32 156.91 182.29 156.91Z" fill="#FFFFFF" fill-opacity="1.000000" fill-rule="nonzero"/>
		<path id="Vector" d="M188.13 170.43C188.13 170.43 208.13 181.73 214.87 172.08C216.28 170.07 216.61 168.08 216.27 166.18C222.26 163.16 228.38 162.28 231.75 162.03C232.63 166.66 232.16 171.58 229.45 176.55C217.63 198.17 185.49 175.36 185.49 175.36L188.13 170.43Z" fill="#2D2D2D" fill-opacity="1.000000" fill-rule="nonzero"/>
		<path id="Vector" d="M190.54 184.72L179.62 146.61C179.5 146.18 179.13 145.86 178.68 145.81C176.71 145.58 170.98 144.93 164.36 144.38C156.39 143.7 147.14 143.16 141.61 143.62C140.83 143.69 140.35 144.52 140.7 145.22C143.85 151.59 156.78 177.46 163.25 185.94C163.47 186.22 163.8 186.38 164.16 186.38L189.47 186.14C190.21 186.14 190.74 185.43 190.54 184.72Z" fill="url(#paint_linear_1_11129_0)" fill-opacity="1.000000" fill-rule="nonzero"/>
		<path id="Vector" d="M163.23 141.07L155.32 139.75C154.9 139.68 154.55 140.09 154.69 140.49L155.47 142.86C155.54 143.07 155.72 143.22 155.93 143.25L163.55 144.27C163.94 144.32 164.27 143.96 164.18 143.57L163.69 141.5C163.64 141.28 163.46 141.11 163.23 141.07Z" fill="url(#paint_linear_1_11130_0)" fill-opacity="1.000000" fill-rule="nonzero"/>
		<path id="Vector" d="M169.15 147.77L168.5 144.37C168.44 144.03 168.16 143.78 167.81 143.74L151.83 142.12C151.29 142.07 150.86 142.56 150.99 143.08L152 147.31C152.09 147.65 152.38 147.9 152.73 147.92L168.34 148.7C168.85 148.73 169.25 148.27 169.15 147.77Z" fill="url(#paint_linear_1_11131_0)" fill-opacity="1.000000" fill-rule="nonzero"/>
		<path id="Vector" d="M187.9 175.52C187.9 175.52 189.42 169.26 188.81 167.05C188.19 164.83 187.01 161.98 183.05 162.61C179.09 163.25 174.41 164.91 174.41 164.91C174.41 164.91 174.65 167.8 177.66 166.87L175.79 168.31C175.79 168.31 176.06 170.63 178.6 169.39L176.87 171.31C176.87 171.31 177.96 173.21 179.83 171.99C181.7 170.77 182.6 176.27 187.9 175.52Z" fill="url(#paint_linear_1_11132_0)" fill-opacity="1.000000" fill-rule="nonzero"/>
		<path id="Vector" d="M206.95 175.97C200.9 175.97 193.21 173.04 192.8 172.88C192.69 172.85 190.05 171.93 189.05 169.98C189 169.89 189.04 169.78 189.13 169.73C189.23 169.68 189.34 169.72 189.39 169.81C190.32 171.62 192.9 172.51 192.93 172.52C193.06 172.58 206.25 177.6 211.6 174.66C211.69 174.61 211.81 174.64 211.86 174.73C211.91 174.82 211.88 174.94 211.78 174.99C210.5 175.7 208.8 175.97 206.95 175.97Z" fill="#FFFFFF" fill-opacity="1.000000" fill-rule="nonzero"/>
		<path id="Vector" d="M214.17 185.88C214.17 185.88 214.16 185.88 214.16 185.88C198.83 185.5 190.06 178.39 189.98 178.31C189.9 178.25 189.88 178.17 189.95 178.08C190.02 178 190.14 178.01 190.22 178.08C190.31 178.15 198.98 185.12 214.17 185.65C214.28 185.65 214.36 185.67 214.36 185.77C214.36 185.87 214.27 185.88 214.17 185.88Z" fill="#FFFFFF" fill-opacity="1.000000" fill-rule="nonzero"/>
		<path id="Vector" d="M174.22 98.02C174.22 98.02 171.3 108.66 171.76 113.96C172.21 119.26 171.57 122.83 177.8 123.02C184.03 123.21 188.72 119.45 190.74 113.81C190.74 113.81 193.94 105.12 192.49 101.96C191.04 98.79 174.22 98.02 174.22 98.02Z" fill="url(#paint_linear_1_11136_0)" fill-opacity="1.000000" fill-rule="nonzero"/>
		<path id="Vector" d="M199.05 98.61C197.72 97.78 196.86 98.07 196.36 98.49C196.21 98.6 196.04 98.61 195.9 98.54C195.88 98.38 194.88 87.5 180.05 89.42C178.51 89.62 177 88.86 176.23 87.51C174.48 84.42 171.16 79.89 168.64 84.32C165.07 90.63 164.01 98.91 174.13 100.62C174.73 100.72 175.33 100.81 175.94 100.87C180.12 101.9 184.87 102.22 186.64 102.67C189.58 103.41 187.33 110.27 187.33 110.27L188.1 110.16L189.74 109.92C189.98 109.89 190.21 110.16 190.23 110.4L190.61 115.08C190.62 115.28 190.78 115.46 190.98 115.48C191.73 115.56 193.68 115.49 196.66 113.3C199.58 111.16 198.18 110.07 197.29 109.65C197.03 109.54 196.98 109.2 197.17 109C201.16 104.66 201.36 100.05 199.05 98.61Z" fill="#868686" fill-opacity="1.000000" fill-rule="nonzero"/>
		<path id="Vector" d="M188.08 111.33C188.08 111.33 188.82 104.7 191.95 106.08C195.07 107.46 191.49 113.46 189.21 114.03L188.08 111.33Z" fill="url(#paint_linear_1_11138_0)" fill-opacity="1.000000" fill-rule="nonzero"/>
		<path id="Vector" d="M171.5 98.62C171.55 98.61 171.6 98.58 171.64 98.54C171.71 98.45 171.69 98.32 171.6 98.25C169.47 96.56 168.3 94.61 168.12 92.46C167.81 88.7 170.64 85.54 170.67 85.51C170.75 85.43 170.74 85.3 170.65 85.22C170.57 85.15 170.44 85.15 170.36 85.24C170.24 85.37 167.39 88.55 167.71 92.49C167.9 94.76 169.12 96.81 171.35 98.57C171.39 98.61 171.45 98.62 171.5 98.62Z" fill="#BDD0FB" fill-opacity="1.000000" fill-rule="nonzero"/>
		<path id="Vector" d="" fill="url(#paint_linear_1_11140_0)" fill-opacity="1.000000" fill-rule="nonzero"/>
		<path id="Vector" d="M267.86 80.39L208.39 64.05L210.4 57.24L270.59 73.58L267.86 80.39Z" fill="#2D2D2D" fill-opacity="1.000000" fill-rule="nonzero"/>
		<path id="Vector" d="M271.83 327.19C271.83 328.81 270.61 330.12 269.11 330.12C267.6 330.12 266.39 328.81 266.39 327.19L266.39 90.02C266.39 88.4 267.6 87.09 269.11 87.09C270.61 87.09 271.83 88.4 271.83 90.02L271.83 327.19Z" fill="#2D2D2D" fill-opacity="1.000000" fill-rule="nonzero"/>
		<path id="Vector" d="M182.17 195.25C180.3 193.53 177.78 192.69 175.25 192.95L104.87 200.08C103.58 200.21 101.84 201.29 101.84 202.59L101.84 203.9C101.84 204.62 102.91 205.31 103.44 205.79C103.98 206.27 105.07 206.5 105.79 206.42L169.89 199.32C171.6 199.13 173.4 199.72 174.63 200.91C175.87 202.1 176.56 203.79 176.43 205.5L174.66 228.93C176.67 233.09 179.21 232.98 181.19 231.89C183.21 230.79 184.49 228.68 184.54 226.38L185.03 201.96C185.08 199.42 184.04 196.97 182.17 195.25Z" fill="#959595" fill-opacity="1.000000" fill-rule="nonzero"/>
		<path id="Vector" d="M129.39 274.04L185.23 314.91L208.92 290.54L152.93 265.69L129.39 274.04Z" fill="#959595" fill-opacity="1.000000" fill-rule="nonzero"/>
		<path id="Vector" d="M234.02 238.11L111.09 235.62C111.09 235.62 110.08 260.94 113.64 270.21C117.21 279.48 148.98 282.34 157.18 270.21C161.76 263.45 169.45 258.02 175.35 254.54C180.17 251.69 185.55 250.42 191.13 250.9L249.84 255.94L249.84 250.24L234.02 238.11Z" fill="url(#paint_linear_1_11147_0)" fill-opacity="1.000000" fill-rule="nonzero"/>
		<path id="Vector" d="M139.29 244.63C145.02 246.09 148.47 251.91 147.01 257.64C145.55 263.36 139.73 266.82 134 265.36C128.28 263.9 124.82 258.08 126.28 252.35C127.74 246.63 133.57 243.17 139.29 244.63Z" fill="#F3F4F6" fill-opacity="1.000000" fill-rule="evenodd"/>
		<path id="Vector" d="M145.33 251.48C147.3 256.25 145.04 261.7 140.28 263.68C135.52 265.65 130.06 263.39 128.09 258.63C126.12 253.86 128.38 248.41 133.14 246.43C137.9 244.46 143.36 246.72 145.33 251.48Z" fill="#F3F4F6" fill-opacity="1.000000" fill-rule="evenodd"/>
		<path id="Vector" d="M305.11 263.43C304 261.19 258.17 236.04 243.41 227.98C240.42 226.34 237.12 225.49 233.71 225.44L132.82 224.14C130.18 224.11 127.75 222.69 126.42 220.4L92.9 162.74L83.9 130.13C82.56 125.27 77.57 122.38 72.68 123.63L71.74 123.87C66.86 125.12 63.87 130.06 65.04 134.97L71.97 164.17L108 236.67C109.24 239.16 111.76 240.77 114.55 240.83L225.79 243.47C228.78 243.54 231.71 244.26 234.4 245.56L290.89 272.98C294.69 274.83 299.23 274.23 302.42 271.45C304.83 269.34 306.65 266.55 305.11 263.43Z" fill="url(#paint_linear_1_11151_0)" fill-opacity="1.000000" fill-rule="nonzero"/>
		<path id="Vector" d="M272.58 337.71L272.55 337.71C271.81 337.71 271.11 337.9 270.6 337.38C270.08 336.85 269.8 336.39 269.82 335.65C270.05 323.97 260.03 309.18 251.61 298.67C245.13 290.58 235.32 286.08 224.96 286.08L216.62 286.08C211.1 286.08 205.65 287.33 200.76 289.9L108.23 337.93C107.84 338.13 107.41 337.71 106.96 337.71L88.2 337.71C84.75 337.71 81.96 341.11 81.96 344.55C81.96 347.41 84.27 350.33 87.13 350.33L273.65 350.33C276.51 350.33 278.82 347.41 278.82 344.55C278.82 341.11 276.03 337.71 272.58 337.71Z" fill="#2D2D2D" fill-opacity="1.000000" fill-rule="nonzero"/>
		<path id="Vector" d="" fill="#BDD0FB" fill-opacity="1.000000" fill-rule="nonzero"/>
		<path id="Vector" d="" fill="#BDD0FB" fill-opacity="1.000000" fill-rule="nonzero"/>
		<path id="Vector" d="" fill="#BDD0FB" fill-opacity="1.000000" fill-rule="nonzero"/>
		<path id="Vector" d="M274.32 93.92C274.32 96.55 272.19 98.69 269.55 98.69L268.76 98.69C266.13 98.69 263.99 96.55 263.99 93.92L263.99 72.48C263.99 69.85 266.13 67.71 268.76 67.71L269.55 67.71C272.19 67.71 274.32 69.85 274.32 72.48L274.32 93.92Z" fill="url(#paint_linear_1_11157_0)" fill-opacity="1.000000" fill-rule="nonzero"/>
		<path id="Vector" d="M273.17 202.92C273.17 205.55 271.04 207.68 268.41 207.68L267.61 207.68C264.98 207.68 262.85 205.55 262.85 202.92L262.85 181.47C262.85 178.84 264.98 176.71 267.61 176.71L268.41 176.71C271.04 176.71 273.17 178.84 273.17 181.47L273.17 202.92Z" fill="url(#paint_linear_1_11158_0)" fill-opacity="1.000000" fill-rule="nonzero"/>
		<path id="Vector" d="M224.8 83.53C226.55 86.92 225.52 90.92 222.71 92.36C219.89 93.81 216.05 92.31 214.31 88.92L191.98 45.48C190.24 42.09 191.26 38.09 194.08 36.64C196.89 35.19 200.74 36.69 202.48 40.08L224.8 83.53Z" fill="url(#paint_linear_1_11159_0)" fill-opacity="1.000000" fill-rule="nonzero"/>
		<path id="Vector" d="M191.33 43.72L190.49 46.85C190.07 48.54 190.26 50.16 191.01 51.73L208.01 87.73C209.26 90.35 211.9 92.57 214.8 92.57L216.11 92.57L191.33 43.72Z" fill="url(#paint_linear_1_11160_0)" fill-opacity="1.000000" fill-rule="nonzero"/>
		<path id="Vector" d="M293.18 238.32C293.11 238.34 222.03 209.35 214.11 207.59C212.78 207.29 188.89 204.17 188.89 204.17L184.41 221.05L218.57 222.8C225.73 235.27 259.8 235.44 271.77 235.86C272.99 235.91 273.91 236.96 273.79 238.17L273.28 243.44C281.76 244.53 289.62 243.33 296.89 239.93L293.18 238.32Z" fill="url(#paint_linear_1_11162_0)" fill-opacity="1.000000" fill-rule="nonzero"/>
		<path id="Vector" d="M273.67 240.51C273.67 240.51 272.29 242.54 272.96 244.67C273.27 245.68 274.29 246.32 275.35 246.27C280.07 246.07 295.54 245.25 301.22 243.01C301.68 242.83 301.77 242.2 301.39 241.88C300.31 241 297.88 239.46 292.96 238.26L293.53 238.54C294.26 238.88 294.1 239.96 293.31 240.08C288.87 240.75 279.61 241.86 273.67 240.51Z" fill="#959595" fill-opacity="1.000000" fill-rule="nonzero"/>
		<path id="Vector" d="M291.51 249.5C291.43 249.52 277.81 243.48 277.74 243.49C251.98 224 223.9 213.01 216.22 210.4C214.93 209.96 213.75 209.31 211.26 209.61L183.11 205.88L186.4 227.73L214.32 225.07C220.09 238.25 258.63 243.03 270.49 244.75C271.69 244.92 272.5 246.07 272.25 247.26L271.17 252.44C279.48 254.44 287.43 254.1 295.02 251.51L291.51 249.5Z" fill="url(#paint_linear_1_11164_0)" fill-opacity="1.000000" fill-rule="nonzero"/>
		<path id="Vector" d="M271.87 249.57C271.87 249.57 270.29 251.44 270.71 253.63C270.92 254.67 271.86 255.41 272.92 255.48C277.64 255.79 293.1 256.65 298.99 255.03C299.47 254.9 299.63 254.29 299.28 253.94C298.31 252.94 296.05 251.15 291.29 249.43L291.83 249.76C292.51 250.18 292.24 251.23 291.44 251.26C286.95 251.46 277.63 251.56 271.87 249.57Z" fill="#959595" fill-opacity="1.000000" fill-rule="nonzero"/>
		<path id="Vector" d="M114.32 201.12C114.32 201.12 108.92 218.66 116.53 227.57C120.24 231.9 133.52 229.46 144.13 229.18C173.13 228.4 186.68 228.62 192.99 228.69C194.06 228.7 194.79 227.63 194.42 226.63C191.9 219.82 193.16 211.87 194.81 205.18C195.05 204.25 194.37 203.35 193.41 203.31C181.74 202.76 130.29 194.05 128.43 191.13C126.09 187.45 114.32 201.12 114.32 201.12Z" fill="url(#paint_linear_1_11167_0)" fill-opacity="1.000000" fill-rule="nonzero"/>
		<path id="Vector" d="M85.75 127.2C85.75 127.2 76.11 126.23 77.64 137.38C77.92 139.4 73.65 141.64 74.82 145.29C75.43 147.17 74.77 149.21 73.12 150.31C69.01 153.04 63.26 158.49 65.72 166.68C67.61 172.93 71.63 173.77 75.12 173.08C77.69 172.58 80.26 174.11 80.87 176.65C81.45 179.09 83.31 181.36 88.12 181.61C98.9 182.17 100.42 162.76 100.42 162.76L89.73 135.06L85.75 127.2Z" fill="url(#paint_linear_1_11169_0)" fill-opacity="1.000000" fill-rule="nonzero"/>
		<path id="Vector" d="M128.23 187.73C128.23 187.73 128.83 173.31 127.95 164.99C127.47 160.5 124.84 156.52 120.9 154.29C113.71 150.23 105.01 147.24 103.85 146.59C102.07 145.59 93.7 153.79 93.7 153.79C93.7 153.79 87.52 180.59 98.62 205.12L108.15 200.33C108.15 200.33 105.45 188.88 105.27 180.12C105.27 180.12 108.39 201.62 112 205.88L128.23 187.73Z" fill="#656972" fill-opacity="1.000000" fill-rule="evenodd"/>
		<path id="Vector" d="M145.28 176.72L133.7 176.03L128.87 184.09C128.87 184.09 122.4 192.62 116.91 195.65C111.42 198.68 111.42 198.68 111.42 198.68L98.62 205.12L101.3 210.98C101.98 212.47 103.56 213.32 105.18 213.08C106.61 212.86 108.25 212.56 109.16 212.22C111 211.54 139.17 183.56 139.17 183.56L145.28 176.72Z" fill="url(#paint_linear_1_11171_0)" fill-opacity="1.000000" fill-rule="nonzero"/>
		<path id="Vector" d="M89.7 138.06L94.21 154.07C96.81 156.01 102.66 150.47 102.23 148.24C102.19 148.01 102.08 147.8 101.96 147.6L98.55 137.29C98.03 136.46 93.91 135.97 92.97 136.23L89.56 137.21C88.25 137.59 91.83 134.06 89.7 138.06Z" fill="url(#paint_linear_1_11172_0)" fill-opacity="1.000000" fill-rule="nonzero"/>
		<path id="Vector" d="M92.68 122.6C92.68 122.6 97.52 123.99 101.44 130.26C105.37 136.53 103.41 139.88 100.52 140.66C97.64 141.43 93.25 141.89 88.09 138.16C82.93 134.42 86.43 121.02 92.68 122.6Z" fill="url(#paint_linear_1_11174_0)" fill-opacity="1.000000" fill-rule="nonzero"/>
		<path id="Vector" d="M90.78 134.24C90.78 134.24 86.14 124.93 94.75 123.78L96.95 124.95C96.95 124.95 99.46 119.18 93.96 117.23C88.45 115.28 82.63 118.14 81.27 125.4C79.9 132.66 80.09 137.39 84.17 140.29C88.25 143.2 89.3 139.22 89.3 139.22C89.3 139.22 86.92 136.33 87.54 134.56C88.15 132.78 90.27 134.58 90.27 134.58L90.78 134.24Z" fill="#EDCAB8" fill-opacity="1.000000" fill-rule="nonzero"/>
		<path id="Vector" d="M89.94 135.44C89.94 135.44 87.59 130.64 85.49 132.91C83.38 135.19 87.95 137.31 89.71 137.96L89.94 135.44Z" fill="url(#paint_linear_1_11176_0)" fill-opacity="1.000000" fill-rule="nonzero"/>
		<path id="Vector" d="M95.76 157.02C99.77 164.79 104.98 170.5 112.43 172.36L127.52 157.02C118.97 154.19 112.58 150.36 108.85 145.3L95.76 157.02Z" fill="#BDD0FB" fill-opacity="1.000000" fill-rule="nonzero"/>
	</g>
</svg>
