<svg width="467.286255" height="454.438049" viewBox="0 0 467.286 454.438" fill="none" xmlns="http://www.w3.org/2000/svg" xmlns:xlink="http://www.w3.org/1999/xlink">
	<desc>
			Created with Pixso.
	</desc>
	<defs>
		<filter id="filter_1_4922_dd" x="0.000000" y="0.000000" width="467.286255" height="454.438049" filterUnits="userSpaceOnUse" color-interpolation-filters="sRGB">
			<feFlood flood-opacity="0" result="BackgroundImageFix"/>
			<feColorMatrix in="SourceAlpha" type="matrix" values="0 0 0 0 0 0 0 0 0 0 0 0 0 0 0 0 0 0 127 0" result="hardAlpha"/>
			<feOffset dx="0" dy="32"/>
			<feGaussianBlur stdDeviation="21.3333"/>
			<feComposite in2="hardAlpha" operator="out" k2="-1" k3="1"/>
			<feColorMatrix type="matrix" values="0 0 0 0 0 0 0 0 0 0 0 0 0 0 0 0 0 0 0.039 0"/>
			<feBlend mode="normal" in2="BackgroundImageFix" result="effect_dropShadow_1"/>
			<feColorMatrix in="SourceAlpha" type="matrix" values="0 0 0 0 0 0 0 0 0 0 0 0 0 0 0 0 0 0 127 0" result="hardAlpha"/>
			<feMorphology radius="1" in="" result="effect_dropShadow_1"/>
			<feOffset dx="0" dy="0"/>
			<feGaussianBlur stdDeviation="0.666667"/>
			<feComposite in2="hardAlpha" operator="out" k2="-1" k3="1"/>
			<feColorMatrix type="matrix" values="0 0 0 0 0 0 0 0 0 0 0 0 0 0 0 0 0 0 0.02 0"/>
			<feBlend mode="normal" in2="effect_dropShadow_1" result="effect_dropShadow_2"/>
			<feBlend mode="normal" in="SourceGraphic" in2="effect_dropShadow_2" result="shape"/>
		</filter>
	</defs>
	<g filter="url(#filter_1_4922_dd)">
		<path id="Vector" d="M129.65 100.27C127.2 114.89 125.44 129.81 120.05 143.56C110.02 169.12 88.48 188.19 76.86 213.02C58.39 252.51 70.18 304.51 103.72 331.48C113.64 339.46 125.06 345.32 136.93 349.65C179.53 365.16 225.7 359.23 266.37 338.96C307.05 318.69 338.8 283.7 360.61 242.92C378.74 209.02 390.49 167.41 382.26 133.78C379.26 121.53 370.12 109.35 360.24 101.87C342.61 88.53 318.78 89.94 297.09 87.04C276.95 84.34 260.5 80.03 242.99 69.42C224.2 58.03 213.59 35.55 191.36 32.34C182.37 31.04 171.3 33.45 163.34 38.64C154.33 44.51 145.36 54.15 140.3 63.86C134.44 75.12 131.74 87.78 129.65 100.27Z" fill="#FFFFFF" fill-opacity="1.000000" fill-rule="nonzero"/>
		<path id="Vector" d="M329.66 304.7C323.78 309.42 317.74 314.33 314.08 321.04C310.42 327.74 309.71 336.76 314.38 342.76C318.82 348.46 326.59 349.9 333.67 350.32C340.82 350.74 348.01 350.54 355.12 349.72C366.48 348.42 378.61 344.9 385.39 335.41C389.43 329.77 391.05 322.63 391.5 315.64C392.13 306.01 390.49 295.74 384.53 288.3C379.2 281.66 372.96 278.36 364.88 279.43C361.9 279.82 358.16 281.84 355.78 283.72C351.69 286.93 347.66 290.23 343.61 293.49C338.96 297.23 334.31 300.96 329.66 304.7Z" fill="#FFFFFF" fill-opacity="1.000000" fill-rule="nonzero"/>
		<path id="Vector" d="M377.45 164.36L402.89 164.36" stroke="#969696" stroke-opacity="1.000000" stroke-width="0.786000" stroke-linejoin="round" stroke-linecap="round"/>
		<path id="Vector" d="M367.22 168.42L392.66 168.42" stroke="#969696" stroke-opacity="1.000000" stroke-width="0.786000" stroke-linejoin="round" stroke-linecap="round"/>
		<path id="Vector" d="M239.45 110.7L258.99 110.7" stroke="#969696" stroke-opacity="1.000000" stroke-width="0.786000" stroke-linejoin="round" stroke-linecap="round"/>
		<path id="Vector" d="M94.62 253.3L147.56 253.3" stroke="#969696" stroke-opacity="1.000000" stroke-width="0.786000" stroke-linejoin="round" stroke-linecap="round"/>
		<path id="Vector" d="M80.96 257.09L133.9 257.09" stroke="#969696" stroke-opacity="1.000000" stroke-width="0.786000" stroke-linejoin="round" stroke-linecap="round"/>
		<path id="Vector" d="M64.39 276.12L98.62 276.12" stroke="#969696" stroke-opacity="1.000000" stroke-width="0.786000" stroke-linejoin="round" stroke-linecap="round"/>
		<path id="Vector" d="M87.69 181.23L109.87 181.23" stroke="#969696" stroke-opacity="1.000000" stroke-width="0.786000" stroke-linejoin="round" stroke-linecap="round"/>
		<path id="Vector" d="M200.97 332.75L219.93 332.75" stroke="#969696" stroke-opacity="1.000000" stroke-width="0.786000" stroke-linejoin="round" stroke-linecap="round"/>
		<g opacity="0.570000">
			<path id="Vector" d="M105.53 224.56C105.53 223.28 104.52 222.24 103.28 222.24C102.03 222.24 101.02 223.28 101.02 224.56C101.02 225.84 102.03 226.88 103.28 226.88C104.52 226.88 105.53 225.84 105.53 224.56Z" fill="#FFFFFF" fill-opacity="1.000000" fill-rule="nonzero"/>
		</g>
		<g opacity="0.570000">
			<path id="Vector" d="M309.7 250.15C309.7 248.87 308.69 247.83 307.45 247.83C306.2 247.83 305.19 248.87 305.19 250.15C305.19 251.44 306.2 252.47 307.45 252.47C308.69 252.47 309.7 251.43 309.7 250.15Z" fill="#FFFFFF" fill-opacity="1.000000" fill-rule="nonzero"/>
		</g>
		<g opacity="0.570000">
			<path id="Vector" d="M246.41 89.61C246.41 88.32 245.4 87.28 244.15 87.28C242.91 87.28 241.9 88.32 241.9 89.61C241.9 90.89 242.91 91.93 244.15 91.93C245.4 91.93 246.41 90.89 246.41 89.61Z" fill="#FFFFFF" fill-opacity="1.000000" fill-rule="nonzero"/>
		</g>
		<path id="Vector" d="M267.42 60.71C265.94 60.71 264.74 59.47 264.74 57.95C264.74 56.43 265.94 55.19 267.42 55.19C268.89 55.19 270.09 56.43 270.09 57.95C270.09 59.47 268.89 60.71 267.42 60.71Z" stroke="#969696" stroke-opacity="1.000000" stroke-width="0.786000"/>
		<path id="Vector" d="M145.9 151.95C144.92 151.95 144.14 151.14 144.14 150.14C144.14 149.14 144.92 148.33 145.9 148.33C146.87 148.33 147.66 149.14 147.66 150.14C147.66 151.14 146.87 151.95 145.9 151.95Z" stroke="#969696" stroke-opacity="1.000000" stroke-width="0.786000"/>
		<path id="Vector" d="M260.91 349.84C259.94 349.84 259.15 350.66 259.15 351.66C259.15 352.66 259.94 353.47 260.91 353.47C261.88 353.47 262.67 352.66 262.67 351.66C262.67 350.66 261.88 349.84 260.91 349.84Z" stroke="#969696" stroke-opacity="1.000000" stroke-width="0.786000"/>
		<path id="Vector" d="M79.85 134.64C78.88 134.64 78.09 133.83 78.09 132.82C78.09 131.82 78.88 131.01 79.85 131.01C80.82 131.01 81.61 131.82 81.61 132.82C81.61 133.83 80.82 134.64 79.85 134.64Z" stroke="#969696" stroke-opacity="1.000000" stroke-width="0.786000"/>
		<path id="Vector" d="M133.29 326.01C131.52 326.01 130.09 324.53 130.09 322.71C130.09 320.88 131.52 319.41 133.29 319.41C135.06 319.41 136.49 320.88 136.49 322.71C136.49 324.53 135.06 326.01 133.29 326.01Z" stroke="#969696" stroke-opacity="1.000000" stroke-width="0.786000"/>
		<path id="Vector" d="M149.61 325.81C148.64 325.81 147.85 326.62 147.85 327.62C147.85 328.62 148.64 329.44 149.61 329.44C150.58 329.44 151.37 328.62 151.37 327.62C151.37 326.62 150.58 325.81 149.61 325.81Z" stroke="#969696" stroke-opacity="1.000000" stroke-width="0.786000"/>
		<path id="Vector" d="M392.42 105.68C391.44 105.68 390.66 104.87 390.66 103.87C390.66 102.87 391.44 102.06 392.42 102.06C393.39 102.06 394.18 102.87 394.18 103.87C394.18 104.87 393.39 105.68 392.42 105.68Z" stroke="#969696" stroke-opacity="1.000000" stroke-width="0.786000"/>
		<path id="Vector" d="M381.47 95.23C379.7 95.23 378.26 93.75 378.26 91.92C378.26 90.1 379.7 88.62 381.47 88.62C383.24 88.62 384.67 90.1 384.67 91.92C384.67 93.75 383.24 95.23 381.47 95.23Z" stroke="#969696" stroke-opacity="1.000000" stroke-width="0.786000"/>
		<path id="Vector" d="M144.4 133.75L147.71 130.35" stroke="#969696" stroke-opacity="1.000000" stroke-width="0.786000" stroke-linejoin="round" stroke-linecap="round"/>
		<path id="Vector" d="M152.32 125.59L155.63 122.19" stroke="#969696" stroke-opacity="1.000000" stroke-width="0.786000" stroke-linejoin="round" stroke-linecap="round"/>
		<path id="Vector" d="M155.63 133.75L152.32 130.35" stroke="#969696" stroke-opacity="1.000000" stroke-width="0.786000" stroke-linejoin="round" stroke-linecap="round"/>
		<path id="Vector" d="M147.71 125.59L144.4 122.19" stroke="#969696" stroke-opacity="1.000000" stroke-width="0.786000" stroke-linejoin="round" stroke-linecap="round"/>
		<path id="Vector" d="M293.82 268.72L296.57 265.89" stroke="#969696" stroke-opacity="1.000000" stroke-width="0.786000" stroke-linejoin="round" stroke-linecap="round"/>
		<path id="Vector" d="M300.4 261.94L303.15 259.11" stroke="#969696" stroke-opacity="1.000000" stroke-width="0.786000" stroke-linejoin="round" stroke-linecap="round"/>
		<path id="Vector" d="M303.15 268.72L300.4 265.89" stroke="#969696" stroke-opacity="1.000000" stroke-width="0.786000" stroke-linejoin="round" stroke-linecap="round"/>
		<path id="Vector" d="M296.57 261.94L293.82 259.11" stroke="#969696" stroke-opacity="1.000000" stroke-width="0.786000" stroke-linejoin="round" stroke-linecap="round"/>
		<g opacity="0.570000">
			<path id="Vector" d="M294.54 297.84C294.54 301.12 265.95 303.77 230.69 303.77C195.42 303.77 166.84 301.12 166.84 297.84C166.84 294.57 195.42 291.91 230.69 291.91C265.95 291.91 294.54 294.57 294.54 297.84Z" fill="#FFFFFF" fill-opacity="1.000000" fill-rule="evenodd"/>
		</g>
		<path id="Vector" d="M110.24 151.51L102.75 135.15C102.21 133.97 101.72 133.56 101.31 133.32L88.55 125.85L90.84 121.71L103.59 129.18C105.03 130.02 106.09 131.28 106.94 133.12L114.42 149.48L110.24 151.51Z" fill="#969696" fill-opacity="1.000000" fill-rule="nonzero"/>
		<path id="Vector" d="M108.79 149.77C107.63 150.33 107.13 151.76 107.67 152.96L168.48 286.85C169.16 288.36 170.46 289.37 171.93 289.72C173 289.98 174.16 289.88 175.23 289.36C177.77 288.14 178.87 285.02 177.68 282.4L116.87 148.52C116.33 147.31 114.94 146.8 113.77 147.36L108.79 149.77Z" fill="#2B3134" fill-opacity="1.000000" fill-rule="nonzero"/>
		<path id="Vector" d="M96.47 79.23C106.8 80.33 114.11 91.83 112.8 104.92C111.49 118.02 102.05 127.74 91.72 126.64C81.39 125.54 74.08 114.04 75.39 100.94C76.7 87.85 86.14 78.13 96.47 79.23Z" fill="#0D0D0D" fill-opacity="1.000000" fill-rule="evenodd"/>
		<path id="Vector" d="M100.14 79.62C110.47 80.72 117.78 92.22 116.47 105.32C115.16 118.41 105.72 128.13 95.39 127.03C85.06 125.93 77.75 114.43 79.06 101.33C80.38 88.24 89.81 78.52 100.14 79.62Z" fill="#DAE7F9" fill-opacity="1.000000" fill-rule="evenodd"/>
		<g opacity="0.800000">
			<path id="Vector" d="M86.01 107.02L99.32 119.59" stroke="#FFFFFF" stroke-opacity="1.000000" stroke-width="0.786000" stroke-linejoin="round" stroke-linecap="round"/>
		</g>
		<g opacity="0.800000">
			<path id="Vector" d="M84.9 99.68L98.22 112.26" stroke="#FFFFFF" stroke-opacity="1.000000" stroke-width="0.786000" stroke-linejoin="round" stroke-linecap="round"/>
		</g>
		<path id="Vector" d="M364.58 235.17L259.2 235.17C256.25 235.17 253.86 232.71 253.86 229.67L253.86 75.78C253.86 72.75 256.25 70.28 259.2 70.28L364.58 70.28C367.53 70.28 369.92 72.75 369.92 75.78L369.92 229.67C369.92 232.71 367.53 235.17 364.58 235.17Z" fill="#2B3134" fill-opacity="1.000000" fill-rule="nonzero"/>
		<path id="Vector" d="M358.85 81.7L358.85 223.76L264.93 223.76L264.93 81.7L358.85 81.7Z" fill="#FFFFFF" fill-opacity="1.000000" fill-rule="evenodd"/>
		<path id="Vector" d="M273.23 97.18L350.54 97.18L350.54 102.78L273.23 102.78L273.23 97.18Z" fill="#FFFFFF" fill-opacity="1.000000" fill-rule="evenodd"/>
		<path id="Vector" d="M273.23 107.77L311.89 107.77L311.89 113.28L273.23 113.28L273.23 107.77Z" fill="#FFFFFF" fill-opacity="1.000000" fill-rule="evenodd"/>
		<path id="Vector" d="M273.23 116.41L311.89 116.41L311.89 121.93L273.23 121.93L273.23 116.41Z" fill="#FFFFFF" fill-opacity="1.000000" fill-rule="evenodd"/>
		<path id="Vector" d="M273.23 125.06L311.89 125.06L311.89 130.58L273.23 130.58L273.23 125.06Z" fill="#FFFFFF" fill-opacity="1.000000" fill-rule="evenodd"/>
		<path id="Vector" d="M273.23 133.71L311.89 133.71L311.89 139.22L273.23 139.22L273.23 133.71Z" fill="#FFFFFF" fill-opacity="1.000000" fill-rule="evenodd"/>
		<path id="Vector" d="M273.23 142.36L311.89 142.36L311.89 147.87L273.23 147.87L273.23 142.36Z" fill="#FFFFFF" fill-opacity="1.000000" fill-rule="evenodd"/>
		<path id="Vector" d="M273.23 151.01L311.89 151.01L311.89 156.52L273.23 156.52L273.23 151.01Z" fill="#FFFFFF" fill-opacity="1.000000" fill-rule="evenodd"/>
		<path id="Vector" d="M273.23 159.66L311.89 159.66L311.89 165.17L273.23 165.17L273.23 159.66Z" fill="#FFFFFF" fill-opacity="1.000000" fill-rule="evenodd"/>
		<path id="Vector" d="M317.75 107.77L349.88 107.77L349.88 165.17L317.75 165.17L317.75 107.77Z" fill="#EDCAB8" fill-opacity="1.000000" fill-rule="evenodd"/>
		<path id="Vector" d="M273.23 170.24L349.88 170.24L349.88 214.3L273.23 214.3L273.23 170.24Z" fill="#FFFFFF" fill-opacity="1.000000" fill-rule="evenodd"/>
		<path id="Vector" d="M343.02 87.3L280.76 87.3L280.76 71.86C280.76 68.01 283.79 64.89 287.52 64.89L336.25 64.89C339.99 64.89 343.02 68.01 343.02 71.86L343.02 87.3Z" fill="#969696" fill-opacity="1.000000" fill-rule="nonzero"/>
		<path id="Vector" d="M311.52 46.65C306.1 46.65 301.7 51.35 301.7 57.15L301.7 72.83L321.34 72.83L321.34 57.15C321.34 51.35 316.94 46.65 311.52 46.65ZM311.52 58.27C310.17 58.27 309.08 57.15 309.08 55.76C309.08 54.38 310.17 53.26 311.52 53.26C312.86 53.26 313.95 54.38 313.95 55.76C313.95 57.15 312.86 58.27 311.52 58.27Z" fill="#969696" fill-opacity="1.000000" fill-rule="nonzero"/>
		<path id="Vector" d="M228.09 133.99C221.79 133.99 218.13 132.55 208.7 128.05C199.26 123.55 191.02 123.83 191.02 123.83C171.61 123.83 157.32 138.14 155.34 160.04C155.34 160.04 152.99 178.56 164.92 220.8C177.33 264.75 179.22 273.21 189.47 282.82C191.76 284.74 194.68 285.89 197.86 285.89C201.93 285.89 205.58 284 208.01 281.03C208.01 281.03 212.1 276.09 215.69 263.57C219.21 251.26 221.74 239.71 228.09 239.71C234.44 239.71 236.97 251.26 240.49 263.57C244.08 276.09 248.17 281.03 248.17 281.03C250.6 284 254.25 285.89 258.32 285.89C261.5 285.89 264.42 284.74 266.71 282.82C276.96 273.21 278.85 264.75 291.26 220.8C303.19 178.56 300.85 160.04 300.85 160.04C298.86 138.14 284.57 123.83 265.17 123.83C265.17 123.83 256.92 123.55 247.49 128.05C238.05 132.55 234.39 133.99 228.09 133.99Z" fill="#FFFFFF" fill-opacity="1.000000" fill-rule="nonzero"/>
		<g opacity="0.450000">
			<path id="Vector" d="M191.21 270.56C177.07 231.23 166.9 187.02 165.36 159.93C164.69 148.26 167.68 136.42 172.54 128.99C162.99 135 156.61 145.94 155.34 160.04C155.34 160.04 152.99 178.56 164.92 220.8C177.33 264.74 179.22 273.21 189.47 282.82C191.76 284.74 194.68 285.89 197.86 285.89C201.17 285.89 204.17 284.63 206.5 282.58C196.59 283.58 191.21 270.56 191.21 270.56Z" fill="#FFFFFF" fill-opacity="1.000000" fill-rule="nonzero"/>
		</g>
		<g opacity="0.450000">
			<path id="Vector" d="M243.39 139.84C252.5 139.84 257.57 136.12 265.2 133.81C272.55 131.6 282.28 131.3 289.65 133.84C283.39 127.45 274.93 123.83 265.17 123.83C265.17 123.83 256.92 123.55 247.48 128.05C238.05 132.55 234.39 133.99 228.09 133.99C223.92 133.99 220.9 133.35 216.59 131.62C227.78 140.4 243.39 139.84 243.39 139.84Z" fill="#FFFFFF" fill-opacity="1.000000" fill-rule="nonzero"/>
		</g>
		<path id="Vector" d="M262.17 134.84C258.36 137.27 254.06 138.89 249.64 139.82C247.42 140.3 245.16 140.56 242.9 140.68C240.63 140.76 238.36 140.65 236.1 140.37C231.6 139.79 227.19 138.41 223.13 136.35C219.08 134.28 215.38 131.55 212.14 128.38C215.77 131.07 219.62 133.38 223.65 135.2C225.68 136.06 227.73 136.88 229.86 137.44C231.97 138.04 234.12 138.52 236.3 138.77C240.64 139.36 245.07 139.25 249.42 138.58C251.6 138.24 253.77 137.78 255.89 137.14C258.03 136.55 260.13 135.78 262.17 134.84Z" fill="#0D0D0D" fill-opacity="1.000000" fill-rule="nonzero"/>
		<g opacity="0.450000">
			<path id="Vector" d="M282.12 165.9C283.26 169.27 283.08 172.95 283.42 176.51C283.53 177.65 283.75 178.89 284.61 179.62C285.16 180.09 285.91 180.27 286.63 180.28C288.85 180.34 290.95 179 292.3 177.18C293.65 175.37 294.71 172.94 295.16 170.69C296.06 166.21 296.08 161.97 295.16 157.48C294.56 154.54 293.11 151.27 290.86 149.23C288.73 147.3 285.85 146.46 283.06 146.86C278.23 147.55 276.14 151.78 277.56 156.41C278.61 159.8 280.98 162.55 282.12 165.9Z" fill="#FFFFFF" fill-opacity="1.000000" fill-rule="nonzero"/>
		</g>
		<path id="Vector" d="M212.14 128.38C202.7 123.88 194.46 124.16 194.46 124.16C175.05 124.16 160.76 138.46 158.78 160.36C158.78 160.36 156.44 178.88 168.36 221.12C180.77 265.06 182.66 273.52 192.91 283.13C195.2 285.05 198.12 286.2 201.3 286.2C205.37 286.2 209.02 284.31 211.46 281.34C211.46 281.34 215.54 276.4 219.13 263.89C222.65 251.57 225.18 240.03 231.53 240.03C237.88 240.03 240.41 251.57 243.93 263.89C247.51 276.4 251.6 281.34 251.6 281.34C254.04 284.31 257.68 286.2 261.76 286.2C264.94 286.2 267.86 285.05 270.14 283.13C280.39 273.52 282.29 265.06 294.69 221.12C306.62 178.88 304.27 160.36 304.27 160.36C302.29 138.46 288 124.16 268.6 124.16C268.6 124.16 260.36 123.88 250.92 128.38C241.48 132.88 237.82 134.32 231.53 134.32C225.23 134.32 221.57 132.88 212.14 128.38Z" stroke="#969696" stroke-opacity="1.000000" stroke-width="0.786000"/>
		<path id="Vector" d="M113.56 229.01L178.23 229.01L178.23 249.52L113.56 249.52L113.56 229.01Z" fill="#969696" fill-opacity="1.000000" fill-rule="evenodd"/>
		<path id="Vector" d="M133.4 236.78C133.91 238.16 135.19 239.08 136.62 239.08L155.16 239.08C156.6 239.08 157.88 238.16 158.38 236.78L160.42 231.26L178.23 231.26L178.23 223.36C178.23 218.8 174.64 215.1 170.21 215.1L121.57 215.1C117.15 215.1 113.56 218.8 113.56 223.36L113.56 231.26L131.37 231.26L133.4 236.78Z" fill="#0D0D0D" fill-opacity="1.000000" fill-rule="nonzero"/>
		<path id="Vector" d="M160.42 240.84L158.38 246.36C157.88 247.74 156.59 248.66 155.16 248.66L136.62 248.66C135.19 248.66 133.91 247.74 133.4 246.36L131.37 240.84L113.56 240.84L113.56 307.31C113.56 309.76 115.48 311.74 117.86 311.74L173.93 311.74C176.3 311.74 178.23 309.76 178.23 307.31L178.23 240.84L160.42 240.84Z" fill="#0D0D0D" fill-opacity="1.000000" fill-rule="nonzero"/>
		<path id="Vector" d="M145.89 267.13C144.91 267.13 144.34 266.9 142.86 266.2C141.39 265.49 140.1 265.54 140.1 265.54C137.06 265.54 134.83 267.77 134.52 271.2C134.52 271.2 134.16 274.09 136.02 280.69C137.96 287.56 138.25 288.88 139.86 290.39C140.21 290.69 140.67 290.87 141.17 290.87C141.8 290.87 142.37 290.57 142.75 290.11C142.75 290.11 143.39 289.33 143.95 287.38C144.5 285.45 144.9 283.65 145.89 283.65C146.88 283.65 147.28 285.45 147.83 287.38C148.39 289.33 149.03 290.11 149.03 290.11C149.41 290.57 149.98 290.87 150.62 290.87C151.11 290.87 151.57 290.69 151.93 290.39C153.53 288.88 153.82 287.56 155.76 280.69C157.63 274.09 157.26 271.2 157.26 271.2C156.95 267.77 154.72 265.54 151.69 265.54C151.69 265.54 150.4 265.49 148.92 266.2C147.45 266.9 146.88 267.13 145.89 267.13Z" fill="#FFFFFF" fill-opacity="1.000000" fill-rule="nonzero"/>
		<g opacity="0.400000">
			<path id="Vector" d="M135.17 311.74L117.86 311.74C115.48 311.74 113.56 309.76 113.56 307.31L113.56 249.52L113.56 240.84L113.56 231.26L113.56 229.01L113.56 223.36C113.56 218.8 117.15 215.1 121.57 215.1C121.57 215.1 118.79 302.37 135.17 311.74Z" fill="#0D0D0D" fill-opacity="1.000000" fill-rule="nonzero"/>
		</g>
		<path id="Vector" d="M167.33 241.09C176.89 226.69 190.85 215.53 205.96 211.36C220.51 207.35 239.23 209.07 248.9 220.95C257.84 231.94 257.15 248.31 252.7 261.89C248.25 275.48 240.62 287.83 236.79 301.62C234.41 310.18 234.15 320.84 240.85 326.47C248.22 332.68 259.49 329.01 267.07 323.07C274.64 317.14 279.94 308.96 288.96 305.84C290.6 305.26 293.4 304.98 295.13 305.75C297.8 306.93 298.79 310.35 298.92 313.06C299.15 318.02 297.91 322.69 296.39 327.4C295.36 330.58 293.94 333.67 293.52 337C293.1 340.32 293.92 344.09 296.56 346.06C300.66 349.12 306.41 346.36 310.42 343.16C329.94 327.61 340.76 301.2 337.96 275.95C335.3 252 317.75 222.81 294.1 215.1" stroke="#2B3134" stroke-opacity="1.000000" stroke-width="0.589500"/>
		<path id="Vector" d="M212.75 103.87L168.4 103.87C164.79 103.87 161.86 100.85 161.86 97.14L161.86 80.58C161.86 76.86 164.79 73.84 168.4 73.84L212.75 73.84C216.36 73.84 219.29 76.86 219.29 80.58L219.29 97.14C219.29 100.85 216.36 103.87 212.75 103.87Z" fill="#2B3134" fill-opacity="1.000000" fill-rule="nonzero"/>
		<path id="Vector" d="M201.27 103.87C201.27 103.87 201.27 108.81 205.64 108.81C205.64 108.81 203.29 106.23 205.64 103.87L201.27 103.87Z" fill="#2B3134" fill-opacity="1.000000" fill-rule="nonzero"/>
		<path id="Vector" d="M191.89 89.6L137.91 89.6C133.52 89.6 129.96 85.94 129.96 81.41L129.96 61.26C129.96 56.73 133.52 53.06 137.91 53.06L191.89 53.06C196.28 53.06 199.84 56.73 199.84 61.26L199.84 81.41C199.84 85.94 196.28 89.6 191.89 89.6Z" fill="#0D0D0D" fill-opacity="1.000000" fill-rule="nonzero"/>
		<path id="Vector" d="M177.91 89.6C177.91 89.6 177.91 95.62 183.23 95.62C183.23 95.62 180.37 92.47 183.23 89.6L177.91 89.6Z" fill="#0D0D0D" fill-opacity="1.000000" fill-rule="nonzero"/>
		<path id="Vector" d="M168.66 71.33C168.66 69.19 166.98 67.46 164.9 67.46C162.82 67.46 161.14 69.19 161.14 71.33C161.14 73.48 162.82 75.21 164.9 75.21C166.98 75.21 168.66 73.48 168.66 71.33Z" fill="#FFFFFF" fill-opacity="1.000000" fill-rule="nonzero"/>
		<path id="Vector" d="M153.37 71.33C153.37 69.19 151.69 67.46 149.61 67.46C147.53 67.46 145.85 69.19 145.85 71.33C145.85 73.48 147.53 75.21 149.61 75.21C151.69 75.21 153.37 73.48 153.37 71.33Z" fill="#FFFFFF" fill-opacity="1.000000" fill-rule="nonzero"/>
		<path id="Vector" d="M183.96 71.33C183.96 69.19 182.27 67.46 180.19 67.46C178.11 67.46 176.43 69.19 176.43 71.33C176.43 73.48 178.11 75.21 180.19 75.21C182.27 75.21 183.96 73.48 183.96 71.33Z" fill="#FFFFFF" fill-opacity="1.000000" fill-rule="nonzero"/>
		<path id="Vector" d="M140.42 54.79C136.03 54.79 132.47 58.46 132.47 62.99L132.47 83.14C132.47 87.66 136.03 91.33 140.42 91.33L180.43 91.33C180.43 91.33 180.43 97.35 185.75 97.35C185.75 97.35 182.89 94.2 185.75 91.33L194.41 91.33C198.8 91.33 202.36 87.66 202.36 83.14L202.36 62.99C202.36 58.46 198.8 54.79 194.41 54.79L140.42 54.79Z" stroke="#969696" stroke-opacity="1.000000" stroke-width="0.786000"/>
	</g>
</svg>
