<svg width="455.571716" height="449.987183" viewBox="0 0 455.572 449.987" fill="none" xmlns="http://www.w3.org/2000/svg" xmlns:xlink="http://www.w3.org/1999/xlink">
	<desc>
			Created with Pixso.
	</desc>
	<defs>
		<filter id="filter_1_11209_dd" x="0.000000" y="0.000000" width="455.571716" height="449.987183" filterUnits="userSpaceOnUse" color-interpolation-filters="sRGB">
			<feFlood flood-opacity="0" result="BackgroundImageFix"/>
			<feColorMatrix in="SourceAlpha" type="matrix" values="0 0 0 0 0 0 0 0 0 0 0 0 0 0 0 0 0 0 127 0" result="hardAlpha"/>
			<feOffset dx="0" dy="32"/>
			<feGaussianBlur stdDeviation="21.3333"/>
			<feComposite in2="hardAlpha" operator="out" k2="-1" k3="1"/>
			<feColorMatrix type="matrix" values="0 0 0 0 0 0 0 0 0 0 0 0 0 0 0 0 0 0 0.039 0"/>
			<feBlend mode="normal" in2="BackgroundImageFix" result="effect_dropShadow_1"/>
			<feColorMatrix in="SourceAlpha" type="matrix" values="0 0 0 0 0 0 0 0 0 0 0 0 0 0 0 0 0 0 127 0" result="hardAlpha"/>
			<feMorphology radius="1" in="" result="effect_dropShadow_1"/>
			<feOffset dx="0" dy="0"/>
			<feGaussianBlur stdDeviation="0.666667"/>
			<feComposite in2="hardAlpha" operator="out" k2="-1" k3="1"/>
			<feColorMatrix type="matrix" values="0 0 0 0 0 0 0 0 0 0 0 0 0 0 0 0 0 0 0.02 0"/>
			<feBlend mode="normal" in2="effect_dropShadow_1" result="effect_dropShadow_2"/>
			<feBlend mode="normal" in="SourceGraphic" in2="effect_dropShadow_2" result="shape"/>
		</filter>
	</defs>
	<g filter="url(#filter_1_11209_dd)">
		<path id="Vector" d="M267.78 144.46C267.02 140.38 266.15 136.32 265.17 132.3C261.49 131.97 246.34 129.96 234.2 118.65C234.2 118.65 256.54 117.58 264.43 129.34C263.2 124.86 261.93 120.38 260.42 115.99C256.42 116.55 238.57 118.26 226.28 106.8C226.28 106.8 250.48 104.01 259.65 113.79C258.84 111.4 257.91 109.06 257.03 106.69C256.51 105.42 255.99 104.15 255.47 102.88C250.71 103.48 233.65 104.69 221.78 93.63C221.78 93.63 244.14 91.05 254.02 99.53C253.97 99.43 253.93 99.33 253.88 99.23C252.82 96.74 251.64 94.31 250.47 91.87L249.67 90.3C244.65 89.7 227.77 86.95 216.04 76.03C216.04 76.03 236.34 75.56 247.33 85.8C247.13 85.43 246.93 85.06 246.73 84.68C245.01 81.5 243.18 78.38 241.28 75.3C237.05 74.13 219.46 68.74 207.29 57.41C207.29 57.41 227.41 59.84 238.39 70.74C235.73 66.7 232.92 62.76 229.96 58.92C225.03 55.47 211.8 45.4 204.5 32C204.5 32 227.64 42.94 231.78 59.81C234.46 63.13 237.02 66.55 239.44 70.07C239.9 70.73 240.34 71.41 240.79 72.08C238.14 65.35 233.56 51.44 234.42 37.8C234.42 37.8 247.88 58.87 242.87 75.28C246.14 80.43 249.16 85.74 251.89 91.2C250.06 84.08 247.3 69.98 249.75 56.76C249.75 56.76 260.57 79.22 253.68 94.92C254.25 96.13 254.81 97.35 255.35 98.58C256.48 101.06 257.46 103.6 258.5 106.13L258.84 107.05C257.95 100.45 257.93 89.51 262.96 75.07C262.96 75.07 270.31 98.91 261.13 113.4C261.18 113.54 261.23 113.67 261.27 113.81C262.86 118.47 264.2 123.21 265.39 127.99C265.46 122.74 266.69 113.31 272.13 97.84C272.13 97.84 278.21 120.4 266.53 132.91C266.87 134.44 267.2 135.96 267.46 137.5L268.19 141.51L268.79 145.55C268.84 145.86 268.87 146.18 268.92 146.5C269.39 142.52 271.6 135.17 279.82 123.38C279.82 123.38 282.35 138.64 269.35 150.05C269.48 151.25 269.6 152.45 269.73 153.64C270.01 156.34 270.13 159.06 270.31 161.76C269.72 156.23 268.93 150.72 267.93 145.26C264.71 144.99 249.16 143.16 236.74 131.59C236.74 131.59 256.04 131.85 267.78 144.46Z" fill="#2D2D2D" fill-opacity="1.000000" fill-rule="nonzero"/>
		<path id="Vector" d="M224.31 170.4C242.7 152.58 236.32 189.55 256.23 190.53C276.13 191.51 258.3 124.85 284.88 118.95C300.93 115.4 298.73 150.47 305.8 145.79C312.87 141.11 304.27 110.07 312.34 104.98C320.41 99.89 320.05 133.36 323.75 128.84C327.46 124.33 343.36 61.62 361.29 65.2C379.21 68.78 355.04 142.36 357.39 145.7C359.88 149.25 380.6 139.49 381.95 151.22C383.31 162.96 338.38 187.88 341.02 195.5C343.65 203.11 388.85 181.4 389.06 201.43C389.34 228.59 320.21 226.4 325.68 245.52C331.16 264.63 365.81 250.04 352.58 271.95C338.13 295.88 291.19 288.96 257.72 262.45C224.24 235.95 204.23 189.86 224.31 170.4Z" fill="#2D2D2D" fill-opacity="1.000000" fill-rule="nonzero"/>
		<path id="Vector" d="M361.29 65.2C361.33 66.43 361.11 67.65 360.97 68.86C360.8 70.08 360.63 71.3 360.41 72.51C360 74.93 359.53 77.34 359.04 79.75C358.05 84.56 356.92 89.35 355.71 94.11C353.24 103.63 350.4 113.05 347.26 122.37C344.14 131.7 340.57 140.88 336.77 149.96C332.95 159.03 328.85 167.99 324.39 176.76C319.88 185.51 315.13 194.15 309.96 202.53C304.8 210.92 299.44 219.2 293.53 227.08C290.67 231.08 287.55 234.9 284.53 238.79C282.98 240.7 281.38 242.57 279.81 244.46L277.44 247.29C276.63 248.22 275.8 249.13 274.98 250.05L270.01 255.51L264.87 260.8L262.29 263.45L259.62 265.99L254.26 271.05L259.4 265.77L261.99 263.15L264.47 260.43L269.44 254.99L274.22 249.39L276.61 246.6L278.92 243.73C280.45 241.81 282.01 239.92 283.51 237.99C286.45 234.06 289.47 230.2 292.25 226.16C295.12 222.18 297.81 218.08 300.55 214.02C301.92 211.99 303.18 209.89 304.51 207.83L306.47 204.72L308.36 201.57C313.46 193.2 318.12 184.57 322.56 175.84C331.55 158.42 339.14 140.3 345.77 121.86C349.08 112.63 352.08 103.29 354.75 93.85C356.1 89.14 357.37 84.4 358.51 79.63C359.08 77.25 359.62 74.85 360.11 72.45C360.37 71.25 360.59 70.05 360.82 68.84C361.01 67.63 361.28 66.42 361.29 65.2Z" fill="#EDCAB8" fill-opacity="1.000000" fill-rule="nonzero"/>
		<path id="Vector" d="M356.58 266.92C353.01 268.26 349.26 269.12 345.48 269.71C341.69 270.31 337.86 270.63 334.03 270.7C326.35 270.77 318.66 269.85 311.2 267.99C309.32 267.56 307.48 266.99 305.63 266.45C303.81 265.84 301.98 265.26 300.19 264.54C298.38 263.89 296.62 263.1 294.85 262.35C293.97 261.97 293.11 261.53 292.24 261.12C291.37 260.71 290.49 260.31 289.65 259.85C282.82 256.31 276.36 252.09 270.31 247.34C264.32 242.52 258.8 237.12 253.86 231.24C251.43 228.26 249.08 225.22 246.95 222.03C245.85 220.45 244.85 218.81 243.83 217.19C242.87 215.53 241.87 213.89 240.99 212.19C233.77 198.7 228.79 183.91 227.41 168.71C228.46 176.25 230.42 183.63 232.96 190.77C235.49 197.92 238.59 204.87 242.37 211.43C246.12 218 250.45 224.23 255.35 229.99C260.25 235.73 265.68 241.03 271.59 245.74C283.43 255.12 296.97 262.5 311.59 266.47C318.88 268.49 326.44 269.57 334.03 269.7C337.82 269.78 341.63 269.62 345.4 269.18C347.29 268.96 349.17 268.67 351.04 268.29C352.91 267.93 354.77 267.51 356.58 266.92Z" fill="#EDCAB8" fill-opacity="1.000000" fill-rule="nonzero"/>
		<path id="Vector" d="M387.91 202.88C373.65 209.18 358.76 214.19 343.38 217.21C339.53 217.94 335.64 218.53 331.72 218.86C327.8 219.21 323.84 219.27 319.89 218.96C315.94 218.63 311.97 217.87 308.23 216.32C307.77 216.12 307.29 215.95 306.84 215.72L305.51 214.99C304.59 214.54 303.78 213.91 302.95 213.31C301.32 212.09 299.91 210.6 298.64 209.04C296.15 205.87 294.31 202.32 292.75 198.7C291.21 195.06 289.95 191.33 288.93 187.54C287.91 183.76 287.04 179.94 286.34 176.1C285.96 174.18 285.66 172.25 285.34 170.33C285.07 168.39 284.78 166.46 284.55 164.53C283.59 156.78 282.98 149.01 282.61 141.23C282.46 137.34 282.36 133.45 282.33 129.56C282.29 125.67 282.33 121.77 282.48 117.89C282.65 125.66 282.99 133.43 283.62 141.17C284.18 148.92 284.97 156.64 286.12 164.31C287.28 171.97 288.68 179.61 290.81 187.02C291.84 190.74 293.08 194.39 294.6 197.91C296.12 201.42 297.92 204.82 300.25 207.77C301.43 209.23 302.71 210.6 304.19 211.71C304.94 212.25 305.66 212.83 306.51 213.24L307.73 213.92C308.14 214.14 308.59 214.29 309.02 214.48C312.47 215.94 316.25 216.67 320.06 217.03C327.7 217.75 335.46 216.88 343.1 215.67C350.75 214.37 358.31 212.53 365.77 210.32C373.25 208.18 380.63 205.67 387.91 202.88Z" fill="#EDCAB8" fill-opacity="1.000000" fill-rule="nonzero"/>
		<path id="Vector" d="M381.95 151.22C377.55 154.02 372.99 156.54 368.39 159C363.76 161.4 359.04 163.65 354.21 165.67C351.79 166.67 349.35 167.62 346.84 168.42C344.34 169.24 341.8 169.95 339.18 170.45C336.57 170.93 333.86 171.23 331.08 170.83C329.7 170.6 328.28 170.19 327.03 169.31C325.85 168.41 324.89 167.33 324.16 166.18C322.66 163.88 321.63 161.41 320.72 158.94C319.82 156.45 319.08 153.93 318.44 151.39C317.79 148.86 317.23 146.3 316.73 143.74C316.21 141.18 315.78 138.61 315.39 136.04C314.6 130.88 313.96 125.72 313.43 120.54C312.97 115.36 312.53 110.18 312.34 104.98C312.99 110.14 313.64 115.29 314.43 120.42C315.16 125.56 315.98 130.68 316.94 135.77C317.94 140.85 318.94 145.93 320.32 150.9C320.99 153.39 321.72 155.86 322.61 158.25C323.5 160.64 324.51 163 325.87 165.05C326.52 166.1 327.33 166.97 328.2 167.66C329.09 168.3 330.22 168.66 331.4 168.86C333.79 169.23 336.34 168.96 338.84 168.55C343.86 167.68 348.78 165.98 353.63 164.21C358.48 162.39 363.24 160.31 367.95 158.11C372.68 155.95 377.32 153.61 381.95 151.22Z" fill="#EDCAB8" fill-opacity="1.000000" fill-rule="nonzero"/>
		<path id="Vector" d="M126.45 177.08C122.85 159.62 142.24 177.22 150.28 165.93C158.33 154.63 112.36 140.07 118.86 122.29C122.78 111.54 142.62 125.99 142.52 120.09C142.41 114.19 120.9 107.59 120.92 100.95C120.95 94.31 140.53 107.07 139.26 103.21C137.99 99.34 107.01 66.5 115.84 57.34C124.67 48.17 158.96 89.94 161.81 89.81C164.83 89.69 166.85 73.88 174.27 77.49C181.7 81.09 179.53 116.77 185.01 118.08C190.48 119.4 194.64 84.75 206.52 92.15C222.63 102.17 195.41 141.87 208.73 145.83C222.04 149.79 226.44 124.01 234.39 139.98C243.07 157.42 221.39 182.34 193.22 192.02C165.05 201.71 130.39 196.16 126.45 177.08Z" fill="#2D2D2D" fill-opacity="1.000000" fill-rule="nonzero"/>
		<path id="Vector" d="M115.84 57.34C116.74 57.89 117.52 58.62 118.33 59.3C119.12 59.99 119.91 60.7 120.69 61.41C122.24 62.85 123.75 64.33 125.25 65.82C128.25 68.8 131.13 71.89 133.99 75.01C139.63 81.31 144.99 87.86 150.09 94.61C160.27 108.12 169.29 122.52 176.92 137.63L178.33 140.47C178.81 141.42 179.27 142.37 179.7 143.34L182.34 149.11C183.97 153.01 185.68 156.89 187.12 160.87C188.68 164.8 189.96 168.84 191.32 172.84L193.13 178.93C193.41 179.94 193.74 180.95 193.99 181.98L194.75 185.06L195.51 188.14C195.76 189.17 196.02 190.19 196.21 191.23L197.46 197.45C197.69 198.48 197.85 199.53 198.01 200.57L198.49 203.71C198.82 205.79 199.17 207.88 199.35 209.99L200 216.29C200.16 218.4 200.24 220.51 200.37 222.62L200.54 225.78L200.55 228.94L200.55 235.27L200.34 228.95L200.24 225.79L199.99 222.64C199.81 220.54 199.67 218.44 199.47 216.34L198.66 210.07C198.43 207.98 198.05 205.91 197.7 203.83L197.16 200.72C196.99 199.68 196.82 198.65 196.58 197.62L195.23 191.45C195.03 190.42 194.75 189.4 194.48 188.39L193.68 185.33L192.88 182.28C192.61 181.26 192.28 180.27 191.98 179.26L190.15 173.22C188.77 169.24 187.47 165.24 185.9 161.33C184.45 157.38 182.73 153.53 181.09 149.66L178.43 143.93C177.57 142.01 176.57 140.16 175.64 138.27C171.87 130.74 167.81 123.36 163.36 116.2C158.93 109.04 154.17 102.08 149.21 95.26C144.24 88.46 138.98 81.85 133.47 75.47C130.7 72.29 127.9 69.13 124.98 66.08C123.53 64.56 122.05 63.05 120.54 61.57C119.79 60.83 119.03 60.1 118.26 59.38C117.47 58.67 116.72 57.92 115.84 57.34Z" fill="#EDCAB8" fill-opacity="1.000000" fill-rule="nonzero"/>
		<path id="Vector" d="M232.93 135.74C232.37 138.34 231.46 140.86 230.4 143.3L229.57 145.12C229.29 145.72 228.96 146.3 228.66 146.89C228.34 147.48 228.06 148.09 227.71 148.66L226.68 150.37C223.85 154.9 220.39 159.03 216.52 162.73L213.54 165.44L210.35 167.88C209.32 168.73 208.17 169.43 207.04 170.16L205.35 171.25C204.79 171.61 204.24 172 203.64 172.3L200.1 174.2C199.5 174.51 198.93 174.85 198.32 175.13L196.48 175.94L192.8 177.55C191.56 178.08 190.29 178.5 189.03 178.97C178.86 182.37 168.01 183.78 157.33 182.98C146.67 182.16 136.09 179.52 126.62 174.64C131.46 176.85 136.54 178.47 141.7 179.65C146.86 180.85 152.12 181.64 157.4 181.88C162.68 182.14 167.97 181.97 173.2 181.27C178.43 180.54 183.59 179.33 188.57 177.62C189.81 177.16 191.07 176.77 192.28 176.26L195.92 174.7L197.74 173.92C198.34 173.65 198.91 173.32 199.49 173.02L202.99 171.17C207.51 168.48 211.92 165.53 215.77 161.93C219.67 158.39 223.18 154.4 226.09 150C229.02 145.61 231.46 140.85 232.93 135.74Z" fill="#EDCAB8" fill-opacity="1.000000" fill-rule="nonzero"/>
		<path id="Vector" d="M206.95 93.37C205.31 104.09 202.68 114.69 198.69 124.84C196.66 129.9 194.23 134.85 190.89 139.25C189.21 141.44 187.29 143.49 184.97 145.1C184.68 145.29 184.41 145.51 184.1 145.69L183.17 146.2C182.57 146.57 181.89 146.81 181.23 147.07C179.89 147.57 178.49 147.84 177.1 148C174.3 148.27 171.51 148.01 168.8 147.56C166.08 147.1 163.41 146.43 160.8 145.61C158.18 144.79 155.61 143.88 153.08 142.85C151.8 142.36 150.55 141.81 149.3 141.28C148.06 140.71 146.81 140.16 145.58 139.57C135.75 134.88 126.31 129.41 117.33 123.29C121.97 126.11 126.68 128.82 131.48 131.36C136.25 133.93 141.1 136.37 146.05 138.57C151 140.75 156.01 142.82 161.18 144.36C163.76 145.15 166.38 145.79 169.02 146.21C171.66 146.63 174.34 146.85 176.95 146.58C178.25 146.44 179.54 146.21 180.75 145.76C181.35 145.52 181.97 145.32 182.53 144.98L183.39 144.52C183.67 144.36 183.93 144.15 184.2 143.97C186.36 142.5 188.22 140.56 189.86 138.46C193.14 134.24 195.52 129.35 197.68 124.43C199.78 119.46 201.53 114.33 203.03 109.13C204.57 103.95 205.86 98.68 206.95 93.37Z" fill="#EDCAB8" fill-opacity="1.000000" fill-rule="nonzero"/>
		<path id="Vector" d="M174.27 77.49C174.2 84.73 173.62 91.99 172.38 99.16C172.07 100.96 171.7 102.74 171.24 104.52C170.78 106.29 170.25 108.05 169.56 109.77C168.86 111.48 168.02 113.18 166.75 114.66C166.07 115.36 165.32 116.06 164.33 116.46C163.36 116.82 162.36 116.98 161.41 116.97C159.49 116.99 157.66 116.67 155.86 116.27C154.05 115.87 152.29 115.36 150.55 114.78C147.08 113.63 143.69 112.29 140.36 110.81C137.03 109.34 133.75 107.78 130.5 106.15C127.28 104.47 124.05 102.79 120.92 100.95C124.21 102.51 127.48 104.06 130.8 105.52C134.1 107.01 137.43 108.46 140.79 109.8C144.16 111.12 147.53 112.44 150.97 113.5C152.69 114.04 154.41 114.53 156.16 114.91C157.9 115.28 159.67 115.57 161.38 115.55C162.24 115.56 163.07 115.42 163.8 115.15C164.51 114.88 165.13 114.32 165.7 113.73C166.81 112.47 167.62 110.87 168.31 109.26C169.69 105.99 170.52 102.47 171.3 98.96C172.05 95.43 172.61 91.86 173.08 88.28C173.58 84.69 173.94 81.09 174.27 77.49Z" fill="#EDCAB8" fill-opacity="1.000000" fill-rule="nonzero"/>
		<path id="Vector" d="M188.15 209.33C173.08 204.02 186.36 223.31 175.34 229.04C164.32 234.77 156.99 192.37 140.39 195.95C130.37 198.11 140.79 217.41 135.56 216.59C130.33 215.78 127.08 195.96 121.18 195.18C115.28 194.39 124.23 213.26 120.96 211.66C117.68 210.07 92.27 178.68 83.05 185.37C73.83 192.06 106.77 227.46 106.31 229.96C105.83 232.62 91.54 232.48 93.84 239.48C96.14 246.48 128.11 248.91 128.61 253.91C129.11 258.91 97.82 258.37 102.94 269.78C109.88 285.23 148.48 266.01 150.37 278.26C152.27 290.51 128.83 291.26 142.05 300.23C156.49 310.03 181.27 293.9 193.3 270.17C205.34 246.45 204.62 215.13 188.15 209.33Z" fill="#2D2D2D" fill-opacity="1.000000" fill-rule="nonzero"/>
		<path id="Vector" d="M83.05 185.37C83.77 186.74 84.74 187.96 85.64 189.21C86.56 190.46 87.5 191.69 88.45 192.9C90.36 195.33 92.34 197.7 94.36 200.04C98.38 204.73 102.56 209.29 106.9 213.69C115.57 222.48 124.7 230.84 134.47 238.41C144.15 246.07 154.41 253.02 165.16 259.11C167.82 260.68 170.58 262.08 173.3 263.54C174.68 264.24 176.07 264.9 177.46 265.59L179.54 266.61L181.65 267.57L185.87 269.49L190.16 271.26L192.31 272.15L194.48 272.96L198.83 274.59C187.01 270.87 175.54 265.97 164.68 259.96C159.2 257.04 153.94 253.73 148.76 250.31C143.58 246.9 138.58 243.22 133.68 239.41C128.8 235.57 124.07 231.54 119.49 227.36C114.92 223.18 110.44 218.88 106.19 214.37C101.93 209.87 97.81 205.23 93.88 200.44C91.93 198.03 90.02 195.6 88.18 193.1C87.26 191.86 86.36 190.6 85.48 189.32C84.63 188.03 83.71 186.77 83.05 185.37Z" fill="#EDCAB8" fill-opacity="1.000000" fill-rule="nonzero"/>
		<path id="Vector" d="M138.46 298.42C143.18 297.75 147.71 296.17 151.96 294.11C156.22 292.07 160.2 289.46 163.82 286.45C167.49 283.48 170.63 279.93 173.57 276.26L175.63 273.4C175.97 272.91 176.34 272.45 176.65 271.95L177.57 270.44L179.4 267.42C180 266.41 180.47 265.33 181.01 264.29C181.53 263.23 182.11 262.2 182.57 261.12L183.9 257.85L184.56 256.21L185.09 254.53L186.15 251.16C187.32 246.61 188.3 241.98 188.63 237.27C189.03 232.57 189.03 227.83 188.58 223.13C188.16 218.42 187.32 213.73 185.96 209.19C186.79 211.41 187.44 213.71 187.95 216.03C188.23 217.18 188.42 218.36 188.66 219.53C188.86 220.7 189.02 221.88 189.2 223.06C189.78 227.79 189.89 232.58 189.61 237.34L189.34 240.92L188.81 244.46C188.71 245.05 188.66 245.65 188.52 246.23L188.13 247.98C187.86 249.15 187.63 250.33 187.32 251.48L186.27 254.91L185.73 256.63L185.06 258.29L183.73 261.63C183.26 262.73 182.68 263.78 182.16 264.86C181.6 265.92 181.11 267.01 180.5 268.04L178.62 271.1L177.69 272.64C177.36 273.14 176.99 273.61 176.64 274.1L174.52 277C173.81 277.96 172.97 278.82 172.2 279.74C171.41 280.64 170.66 281.57 169.77 282.39L167.2 284.9L164.44 287.2C160.68 290.17 156.59 292.73 152.22 294.68C147.84 296.57 143.22 298.03 138.46 298.42Z" fill="#EDCAB8" fill-opacity="1.000000" fill-rule="nonzero"/>
		<path id="Vector" d="M103.97 270.3C108.83 269.98 113.66 269.48 118.46 268.75C123.26 268.06 128.03 267.14 132.7 265.88C137.34 264.58 141.97 263.06 146.11 260.66C148.17 259.47 150.12 258.07 151.7 256.34C153.29 254.63 154.38 252.55 154.91 250.26C155.46 247.98 155.59 245.59 155.53 243.2C155.47 240.82 155.22 238.43 154.83 236.05C154.1 231.3 152.9 226.61 151.55 221.97C150.2 217.32 148.62 212.74 146.92 208.21C145.25 203.66 143.41 199.17 141.47 194.72C145.82 203.4 149.52 212.41 152.49 221.68C153.24 224 153.92 226.33 154.51 228.7C155.11 231.06 155.62 233.45 156.03 235.86C156.45 238.27 156.71 240.71 156.78 243.17C156.85 245.63 156.73 248.12 156.15 250.56C155.84 251.78 155.43 252.99 154.83 254.1C154.51 254.66 154.22 255.23 153.82 255.72L153.25 256.48C153.06 256.73 152.83 256.95 152.62 257.18C150.91 259.03 148.86 260.5 146.71 261.71C142.38 264.12 137.68 265.65 132.95 266.83C123.44 269.12 113.7 270.15 103.97 270.3Z" fill="#EDCAB8" fill-opacity="1.000000" fill-rule="nonzero"/>
		<path id="Vector" d="M93.84 239.48C97.09 239.63 100.33 239.75 103.57 239.74C106.81 239.76 110.05 239.7 113.28 239.47C116.49 239.21 119.72 238.9 122.79 238.08C124.31 237.66 125.83 237.15 127.09 236.32C127.68 235.88 128.25 235.41 128.58 234.81C128.91 234.19 129.13 233.48 129.22 232.72C129.46 231.21 129.42 229.61 129.29 228.03C129.17 226.44 128.94 224.85 128.67 223.27C128.15 220.09 127.39 216.96 126.62 213.82C125.84 210.68 124.96 207.57 124.04 204.47C123.14 201.36 122.16 198.27 121.18 195.18C122.44 198.17 123.54 201.22 124.63 204.28C125.69 207.35 126.67 210.44 127.58 213.56C128.48 216.68 129.26 219.85 129.86 223.06C130.16 224.66 130.4 226.28 130.54 227.92C130.67 229.56 130.74 231.23 130.49 232.92C130.37 233.76 130.12 234.63 129.67 235.44C129.2 236.27 128.49 236.85 127.78 237.36C126.31 238.3 124.7 238.84 123.09 239.25C119.87 240.03 116.59 240.32 113.33 240.45C106.8 240.67 100.29 240.3 93.84 239.48Z" fill="#EDCAB8" fill-opacity="1.000000" fill-rule="nonzero"/>
		<path id="Vector" d="M128.89 181.37C126.79 179.48 124.76 177.49 122.83 175.42C122.17 176.13 120.43 177.8 118.1 178.31C114.87 179.04 110.66 179.22 110.92 174.22C111.48 167.79 118.71 172.26 121.78 174.27C120.43 172.77 119.12 171.23 117.87 169.66C117.39 169.05 116.92 168.44 116.46 167.82C115.72 168.47 113.82 169.94 111.47 170.2C108.18 170.6 103.98 170.34 104.75 165.39C105.95 159.08 112.64 164.2 115.5 166.52C113.88 164.28 112.35 161.97 110.92 159.59C110.12 160.16 108.08 161.43 105.71 161.45C102.39 161.51 98.24 160.82 99.51 155.96C101.35 149.77 107.52 155.63 110.12 158.23C108.73 155.81 107.44 153.34 106.26 150.81C105.41 151.28 103.24 152.35 100.86 152.13C97.55 151.83 93.49 150.71 95.25 145.99C97.73 139.94 103.35 146.61 105.64 149.44C105.41 148.92 105.18 148.4 104.96 147.88C104.08 145.79 103.28 143.67 102.55 141.52C101.7 141.9 99.38 142.78 96.98 142.29C93.72 141.65 89.79 140.09 92.02 135.54C95.18 129.62 100.25 137.38 102.15 140.32C101.66 138.82 101.2 137.31 100.79 135.78C100.55 134.88 100.33 133.98 100.11 133.07C97.99 132.91 85.91 130.49 90.93 124.46C95.13 119.98 98.35 127.72 99.72 131.34C99.13 128.62 98.65 125.86 98.31 123.07C98.83 126.38 99.49 129.64 100.32 132.84C100.51 130.2 103.15 117.54 107.51 123.81C112.06 129.73 101.49 132.91 100.44 133.28C100.65 134.09 100.87 134.89 101.11 135.69C101.51 137.09 101.95 138.47 102.41 139.84C102.44 138.98 102.61 137.44 103.35 135.71C104.79 132.42 108.59 131.02 110.56 134.11C112.66 137.27 110.64 138.87 108.44 140.2C106.45 141.41 103.56 140.86 102.68 140.64C103.51 143.03 104.43 145.37 105.44 147.67C105.62 148.08 105.81 148.49 105.99 148.9C105.95 148.01 106 146.58 106.52 144.95C107.62 141.55 111.25 139.77 113.52 142.61C115.93 145.51 114.09 147.3 112.03 148.84C110.24 150.21 107.45 150.03 106.46 149.91C107.68 152.53 109.02 155.09 110.46 157.59C110.34 156.7 110.28 155.34 110.61 153.75C111.35 150.27 114.78 148.13 117.33 150.7C120.01 153.32 118.36 155.29 116.48 157.03C114.86 158.55 112.14 158.69 111.1 158.67C112.55 161.11 114.12 163.49 115.78 165.79C115.58 164.92 115.4 163.61 115.56 162.05C115.95 158.51 119.14 156.03 121.93 158.32C124.86 160.64 123.43 162.78 121.73 164.7C120.3 166.35 117.65 166.78 116.58 166.88C117.18 167.67 117.78 168.46 118.4 169.23C119.53 170.68 120.71 172.08 121.93 173.45C121.64 172.61 121.33 171.34 121.33 169.78C121.35 166.23 124.27 163.44 127.28 165.43C130.44 167.44 129.23 169.7 127.74 171.79C126.48 173.58 123.9 174.28 122.85 174.48C124.76 176.58 126.76 178.59 128.86 180.51C128.48 179.71 128.03 178.46 127.87 176.89C127.52 173.35 130.14 170.27 133.34 171.95C136.69 173.63 135.73 176.01 134.46 178.25C133.39 180.16 130.88 181.11 129.86 181.42C131.96 183.3 134.15 185.1 136.42 186.81C136.46 186.84 136.5 186.87 136.54 186.9C136.07 186.13 135.46 184.9 135.13 183.31C134.41 179.82 136.69 176.49 140.06 177.84C143.58 179.17 142.87 181.64 141.85 184C140.97 186.04 138.51 187.25 137.55 187.64C139.93 189.39 142.41 191.02 144.96 192.55C144.41 191.85 143.59 190.64 143.05 188.98C141.96 185.57 143.89 182.02 147.39 183.03C151.06 184.01 150.62 186.54 149.85 188.99C149.18 191.17 146.75 192.64 145.88 193.09C146.28 193.33 146.69 193.56 147.1 193.79C150.82 195.91 154.72 197.78 158.75 199.43C154.66 197.93 150.72 196.11 146.93 194.08C146.74 193.98 146.55 193.87 146.36 193.76C146.03 194.5 144.87 196.85 142.64 198.12C139.77 199.79 135.78 201.21 134.47 196.35C132.87 189.56 142.6 192.5 145.6 193.34C142.92 191.83 140.34 190.2 137.84 188.46C137.38 189.23 136 191.34 133.74 192.34C130.71 193.71 126.62 194.72 125.84 189.76C125.01 183.11 133.66 186.49 136.85 187.76C136.6 187.58 136.35 187.41 136.11 187.23C133.99 185.68 131.94 184.04 129.97 182.32C129.4 183.08 127.83 184.96 125.54 185.71C122.4 186.77 118.23 187.37 117.97 182.36C117.85 175.83 125.71 179.72 128.89 181.37Z" fill="#2D2D2D" fill-opacity="1.000000" fill-rule="nonzero"/>
		<path id="Vector" d="M325.29 311.95C325.29 320.54 292.19 335.13 229.29 335.13C166.4 335.13 126.77 320.54 126.77 311.95C126.77 303.36 165.5 288.76 228.39 288.76C291.28 288.76 325.29 303.36 325.29 311.95Z" fill="#656972" fill-opacity="1.000000" fill-rule="nonzero"/>
		<path id="Vector" d="M268.67 130.55C260.84 114.67 244.38 104.01 225.12 104.43C207.59 104.81 192.98 114.25 185.38 128.16C181.19 127.07 176.81 126.53 172.3 126.62C145.64 127.2 127.16 149.66 131.03 176.8C131.13 177.5 131.25 178.2 131.38 178.89L131.38 178.89C131.38 178.89 132.78 194.39 146.3 230.55C159.18 267.03 152.3 305.13 167.08 306.55C183.69 308.15 180.14 281.6 197.27 284.81C211.08 287.43 215.72 325.51 229.94 325.1C230.17 325.09 230.39 325.08 230.62 325.06C231.14 325.11 231.7 325.14 232.29 325.13C250.99 324.83 248.71 288.95 267.66 286.38C285.55 283.97 281.5 311.25 292.76 306.16C307.68 299.51 296.34 258.44 320.81 221.97C367.4 152.56 316.89 101.87 268.67 130.55Z" fill="#FFFFFF" fill-opacity="1.000000" fill-rule="nonzero"/>
		<g opacity="0.160000">
			<path id="Vector" d="M264.94 202.57C264.94 202.57 260.34 217.07 241.81 202.92C229.77 193.74 229.76 177.98 243.44 181.46C243.5 181.48 229.16 161.37 203.6 166.11C187.35 169.13 177.19 187.43 177.19 187.43C177.19 187.43 176.07 170.74 168.41 157.19C166.36 158.81 161.63 158.15 157.07 155.46C152.38 152.67 149.51 148.7 150.17 146.14C147.32 146.21 144.14 146.79 140.6 148C121.39 154.57 132.41 194.39 145.92 230.55C158.81 267.03 151.93 305.13 166.71 306.55C183.31 308.15 179.77 281.6 196.89 284.81C210.71 287.43 213.43 325.95 230.94 325.13C245.71 324.44 245.08 314 253.8 298.33C263.25 281.32 287.11 231.56 264.94 202.57ZM165.99 166.7C165.14 167.99 162.71 167.89 160.56 166.48C158.41 165.07 157.36 162.88 158.21 161.59C159.06 160.3 161.49 160.4 163.64 161.81C165.79 163.22 166.84 165.41 165.99 166.7ZM246.6 220.32C243.6 219.13 241.76 216.71 242.48 214.91C243.2 213.12 246.21 212.63 249.2 213.82C252.19 215.01 254.03 217.43 253.31 219.22C252.6 221.02 249.59 221.51 246.6 220.32ZM268.9 231.52C267.91 234.28 263.28 235.16 258.56 233.48C253.83 231.8 250.8 228.2 251.79 225.44C252.77 222.67 257.4 221.8 262.13 223.48C266.85 225.15 269.89 228.76 268.9 231.52Z" fill="#EDCAB8" fill-opacity="1.000000" fill-rule="nonzero"/>
		</g>
		<g opacity="0.280000">
			<path id="Vector" d="M230.14 141.97C230.14 142.79 229.47 143.46 228.64 143.46C227.82 143.46 227.15 142.79 227.15 141.97C227.15 141.14 227.82 140.47 228.64 140.47C229.47 140.47 230.14 141.14 230.14 141.97Z" fill="#EDCAB8" fill-opacity="1.000000" fill-rule="nonzero"/>
		</g>
		<g opacity="0.280000">
			<path id="Vector" d="M220.15 133C220.15 133.82 219.48 134.49 218.65 134.49C217.82 134.49 217.15 133.82 217.15 133C217.15 132.17 217.82 131.5 218.65 131.5C219.48 131.5 220.15 132.17 220.15 133Z" fill="#EDCAB8" fill-opacity="1.000000" fill-rule="nonzero"/>
		</g>
		<g opacity="0.280000">
			<path id="Vector" d="M229.64 135.24C229.64 136.06 228.97 136.73 228.15 136.73C227.32 136.73 226.65 136.06 226.65 135.24C226.65 134.41 227.32 133.74 228.15 133.74C228.97 133.74 229.64 134.41 229.64 135.24Z" fill="#EDCAB8" fill-opacity="1.000000" fill-rule="nonzero"/>
		</g>
		<g opacity="0.280000">
			<path id="Vector" d="M237.1 136.73C237.1 137.56 236.43 138.23 235.6 138.23C234.78 138.23 234.11 137.56 234.11 136.73C234.11 135.91 234.78 135.24 235.6 135.24C236.43 135.24 237.1 135.91 237.1 136.73Z" fill="#EDCAB8" fill-opacity="1.000000" fill-rule="nonzero"/>
		</g>
		<g opacity="0.280000">
			<path id="Vector" d="M249.4 131.5C249.4 132.33 248.72 133 247.9 133C247.07 133 246.4 132.33 246.4 131.5C246.4 130.67 247.07 130.01 247.9 130.01C248.72 130.01 249.4 130.68 249.4 131.5Z" fill="#EDCAB8" fill-opacity="1.000000" fill-rule="nonzero"/>
		</g>
		<g opacity="0.280000">
			<path id="Vector" d="M243.43 153.32C243.43 154.14 242.76 154.81 241.93 154.81C241.11 154.81 240.44 154.14 240.44 153.32C240.44 152.49 241.11 151.82 241.93 151.82C242.76 151.82 243.43 152.49 243.43 153.32Z" fill="#EDCAB8" fill-opacity="1.000000" fill-rule="nonzero"/>
		</g>
		<g opacity="0.280000">
			<path id="Vector" d="M217.85 153.32C217.85 154.14 217.17 154.81 216.35 154.81C215.52 154.81 214.85 154.14 214.85 153.32C214.85 152.49 215.52 151.82 216.35 151.82C217.17 151.82 217.85 152.49 217.85 153.32Z" fill="#EDCAB8" fill-opacity="1.000000" fill-rule="nonzero"/>
		</g>
		<g opacity="0.280000">
			<path id="Vector" d="M214.15 148.88C214.15 149.7 213.48 150.37 212.66 150.37C211.83 150.37 211.16 149.7 211.16 148.88C211.16 148.05 211.83 147.38 212.66 147.38C213.48 147.38 214.15 148.05 214.15 148.88Z" fill="#EDCAB8" fill-opacity="1.000000" fill-rule="nonzero"/>
		</g>
		<g opacity="0.280000">
			<path id="Vector" d="M210.39 154.81C210.39 155.64 209.72 156.3 208.89 156.3C208.07 156.3 207.4 155.64 207.4 154.81C207.4 153.98 208.07 153.32 208.89 153.32C209.72 153.32 210.39 153.98 210.39 154.81Z" fill="#EDCAB8" fill-opacity="1.000000" fill-rule="evenodd"/>
		</g>
		<g opacity="0.280000">
			<path id="Vector" d="M250.3 154.81C250.3 155.64 249.63 156.3 248.8 156.3C247.97 156.3 247.3 155.63 247.3 154.81C247.3 153.98 247.97 153.32 248.8 153.32C249.63 153.32 250.3 153.98 250.3 154.81Z" fill="#EDCAB8" fill-opacity="1.000000" fill-rule="nonzero"/>
		</g>
		<g opacity="0.280000">
			<path id="Vector" d="M247.9 148.73C247.9 149.56 247.22 150.23 246.4 150.23C245.57 150.23 244.9 149.56 244.9 148.73C244.9 147.91 245.57 147.24 246.4 147.24C247.22 147.24 247.9 147.91 247.9 148.73Z" fill="#EDCAB8" fill-opacity="1.000000" fill-rule="nonzero"/>
		</g>
		<g opacity="0.280000">
			<path id="Vector" d="M239.4 128.94C239.4 129.76 238.73 130.43 237.9 130.43C237.07 130.43 236.4 129.76 236.4 128.94C236.4 128.11 237.07 127.44 237.9 127.44C238.73 127.44 239.4 128.11 239.4 128.94Z" fill="#EDCAB8" fill-opacity="1.000000" fill-rule="nonzero"/>
		</g>
		<g opacity="0.280000">
			<path id="Vector" d="M208.89 128.51C208.89 129.34 208.22 130 207.4 130C206.57 130 205.9 129.34 205.9 128.51C205.9 127.69 206.57 127.02 207.4 127.02C208.22 127.02 208.89 127.69 208.89 128.51Z" fill="#EDCAB8" fill-opacity="1.000000" fill-rule="nonzero"/>
		</g>
		<g opacity="0.160000">
			<path id="Vector" d="M326.24 143.54C331.97 150.93 333.53 159.31 329.71 162.26C325.89 165.21 318.15 161.61 312.41 154.22C306.68 146.83 305.13 138.45 308.95 135.5C312.76 132.55 320.51 136.15 326.24 143.54Z" fill="#EDCAB8" fill-opacity="1.000000" fill-rule="nonzero"/>
		</g>
		<g opacity="0.160000">
			<path id="Vector" d="M327.78 172.26C330.62 173.28 332.1 176.41 331.07 179.25C330.04 182.08 326.91 183.55 324.06 182.53C321.22 181.5 319.75 178.37 320.77 175.54C321.8 172.7 324.94 171.23 327.78 172.26Z" fill="#EDCAB8" fill-opacity="1.000000" fill-rule="nonzero"/>
		</g>
		<g opacity="0.160000">
			<path id="Vector" d="M320.62 169.69C320.62 171.16 319.43 172.36 317.95 172.36C316.47 172.36 315.28 171.16 315.28 169.69C315.28 168.22 316.47 167.02 317.95 167.02C319.43 167.02 320.62 168.22 320.62 169.69Z" fill="#EDCAB8" fill-opacity="1.000000" fill-rule="evenodd"/>
		</g>
		<g opacity="0.280000">
			<path id="Vector" d="M140.6 191.91C140.6 192.74 139.92 193.41 139.1 193.41C138.27 193.41 137.6 192.74 137.6 191.91C137.6 191.09 138.27 190.42 139.1 190.42C139.92 190.42 140.6 191.09 140.6 191.91Z" fill="#EDCAB8" fill-opacity="1.000000" fill-rule="nonzero"/>
		</g>
		<g opacity="0.280000">
			<path id="Vector" d="M146.5 208.94C146.5 209.76 145.83 210.43 145 210.43C144.17 210.43 143.5 209.76 143.5 208.94C143.5 208.11 144.17 207.44 145 207.44C145.83 207.44 146.5 208.11 146.5 208.94Z" fill="#EDCAB8" fill-opacity="1.000000" fill-rule="nonzero"/>
		</g>
		<g opacity="0.280000">
			<path id="Vector" d="M143.5 201.08C143.5 201.91 142.83 202.57 142 202.57C141.17 202.57 140.5 201.91 140.5 201.08C140.5 200.25 141.17 199.59 142 199.59C142.83 199.59 143.5 200.25 143.5 201.08Z" fill="#EDCAB8" fill-opacity="1.000000" fill-rule="nonzero"/>
		</g>
		<g opacity="0.280000">
			<path id="Vector" d="M148 194.15C148 194.97 147.32 195.64 146.5 195.64C145.67 195.64 145 194.97 145 194.15C145 193.32 145.67 192.65 146.5 192.65C147.33 192.65 148 193.32 148 194.15Z" fill="#EDCAB8" fill-opacity="1.000000" fill-rule="nonzero"/>
		</g>
		<g opacity="0.280000">
			<path id="Vector" d="M151.51 202.57C151.51 203.4 150.84 204.07 150.01 204.07C149.19 204.07 148.52 203.4 148.52 202.57C148.52 201.75 149.19 201.08 150.01 201.08C150.84 201.08 151.51 201.75 151.51 202.57Z" fill="#EDCAB8" fill-opacity="1.000000" fill-rule="nonzero"/>
		</g>
		<g opacity="0.280000">
			<path id="Vector" d="M159.75 205.56C159.75 206.39 159.08 207.06 158.25 207.06C157.42 207.06 156.75 206.39 156.75 205.56C156.75 204.74 157.42 204.07 158.25 204.07C159.08 204.07 159.75 204.74 159.75 205.56Z" fill="#EDCAB8" fill-opacity="1.000000" fill-rule="nonzero"/>
		</g>
		<g opacity="0.280000">
			<path id="Vector" d="M158.25 218.18C158.25 219 157.58 219.67 156.75 219.67C155.92 219.67 155.25 219 155.25 218.18C155.25 217.35 155.93 216.68 156.75 216.68C157.58 216.68 158.25 217.35 158.25 218.18Z" fill="#EDCAB8" fill-opacity="1.000000" fill-rule="nonzero"/>
		</g>
		<g opacity="0.280000">
			<path id="Vector" d="M174.95 234.74C174.95 235.57 174.28 236.24 173.45 236.24C172.62 236.24 171.95 235.57 171.95 234.74C171.95 233.92 172.62 233.25 173.45 233.25C174.28 233.25 174.95 233.92 174.95 234.74Z" fill="#EDCAB8" fill-opacity="1.000000" fill-rule="nonzero"/>
		</g>
		<g opacity="0.280000">
			<path id="Vector" d="M180.9 219.67C180.9 220.5 180.23 221.16 179.4 221.16C178.58 221.16 177.91 220.5 177.91 219.67C177.91 218.84 178.58 218.18 179.4 218.18C180.23 218.18 180.9 218.84 180.9 219.67Z" fill="#EDCAB8" fill-opacity="1.000000" fill-rule="nonzero"/>
		</g>
		<g opacity="0.280000">
			<path id="Vector" d="M153.76 226.12C153.76 226.95 153.09 227.62 152.26 227.62C151.43 227.62 150.76 226.95 150.76 226.12C150.76 225.3 151.43 224.63 152.26 224.63C153.09 224.63 153.76 225.3 153.76 226.12Z" fill="#EDCAB8" fill-opacity="1.000000" fill-rule="nonzero"/>
		</g>
		<g opacity="0.280000">
			<path id="Vector" d="M153.76 211.04C153.76 211.86 153.09 212.53 152.26 212.53C151.43 212.53 150.76 211.86 150.76 211.04C150.76 210.21 151.43 209.54 152.26 209.54C153.09 209.54 153.76 210.21 153.76 211.04Z" fill="#EDCAB8" fill-opacity="1.000000" fill-rule="nonzero"/>
		</g>
		<g opacity="0.280000">
			<path id="Vector" d="M150.01 218.18C150.01 219 149.34 219.67 148.52 219.67C147.69 219.67 147.02 219 147.02 218.18C147.02 217.35 147.69 216.68 148.52 216.68C149.34 216.68 150.01 217.35 150.01 218.18Z" fill="#EDCAB8" fill-opacity="1.000000" fill-rule="nonzero"/>
		</g>
		<g opacity="0.280000">
			<path id="Vector" d="M156.6 234.97C156.47 235.78 155.71 236.34 154.89 236.22C154.07 236.1 153.51 235.33 153.63 234.52C153.76 233.7 154.52 233.14 155.34 233.26C156.16 233.39 156.72 234.15 156.6 234.97Z" fill="#EDCAB8" fill-opacity="1.000000" fill-rule="nonzero"/>
		</g>
		<g opacity="0.280000">
			<path id="Vector" d="M159.88 252.68C159.76 253.5 158.99 254.06 158.18 253.93C157.36 253.81 156.79 253.05 156.92 252.23C157.04 251.42 157.81 250.85 158.62 250.98C159.44 251.1 160 251.86 159.88 252.68Z" fill="#EDCAB8" fill-opacity="1.000000" fill-rule="nonzero"/>
		</g>
		<g opacity="0.280000">
			<path id="Vector" d="M158.1 244.46C157.97 245.28 157.21 245.84 156.39 245.72C155.57 245.59 155.01 244.83 155.13 244.02C155.26 243.2 156.02 242.64 156.84 242.76C157.66 242.89 158.22 243.65 158.1 244.46Z" fill="#EDCAB8" fill-opacity="1.000000" fill-rule="nonzero"/>
		</g>
		<g opacity="0.280000">
			<path id="Vector" d="M163.58 238.28C163.46 239.09 162.69 239.66 161.87 239.53C161.06 239.41 160.49 238.65 160.62 237.83C160.74 237.01 161.5 236.45 162.32 236.58C163.14 236.7 163.7 237.46 163.58 238.28Z" fill="#EDCAB8" fill-opacity="1.000000" fill-rule="nonzero"/>
		</g>
		<g opacity="0.280000">
			<path id="Vector" d="M165.79 247.14C165.67 247.95 164.91 248.51 164.09 248.39C163.27 248.27 162.71 247.5 162.83 246.69C162.95 245.87 163.72 245.31 164.54 245.43C165.35 245.56 165.92 246.32 165.79 247.14Z" fill="#EDCAB8" fill-opacity="1.000000" fill-rule="nonzero"/>
		</g>
		<g opacity="0.280000">
			<path id="Vector" d="M165.98 226.35C165.86 227.16 165.1 227.72 164.28 227.6C163.46 227.48 162.9 226.72 163.02 225.9C163.14 225.08 163.91 224.52 164.73 224.64C165.54 224.77 166.11 225.53 165.98 226.35Z" fill="#EDCAB8" fill-opacity="1.000000" fill-rule="nonzero"/>
		</g>
		<g opacity="0.280000">
			<path id="Vector" d="M170.12 263.57C170 264.38 169.23 264.94 168.41 264.82C167.6 264.7 167.03 263.94 167.16 263.12C167.28 262.3 168.04 261.74 168.86 261.86C169.68 261.99 170.24 262.75 170.12 263.57Z" fill="#EDCAB8" fill-opacity="1.000000" fill-rule="nonzero"/>
		</g>
		<g opacity="0.280000">
			<path id="Vector" d="M164.49 270.75C164.36 271.57 163.6 272.13 162.78 272.01C161.96 271.88 161.4 271.12 161.52 270.31C161.64 269.49 162.41 268.93 163.23 269.05C164.05 269.18 164.61 269.94 164.49 270.75Z" fill="#EDCAB8" fill-opacity="1.000000" fill-rule="nonzero"/>
		</g>
		<g opacity="0.280000">
			<path id="Vector" d="M166.75 255.84C166.62 256.66 165.86 257.22 165.04 257.09C164.22 256.97 163.66 256.21 163.78 255.39C163.91 254.58 164.67 254.01 165.49 254.14C166.31 254.26 166.87 255.02 166.75 255.84Z" fill="#EDCAB8" fill-opacity="1.000000" fill-rule="nonzero"/>
		</g>
		<g opacity="0.280000">
			<path id="Vector" d="M161.97 262.34C161.85 263.15 161.09 263.72 160.27 263.59C159.45 263.47 158.89 262.71 159.01 261.89C159.13 261.07 159.9 260.51 160.72 260.64C161.53 260.76 162.1 261.52 161.97 262.34Z" fill="#EDCAB8" fill-opacity="1.000000" fill-rule="nonzero"/>
		</g>
		<g opacity="0.280000">
			<path id="Vector" d="M324.64 194.39C324.54 195.21 325.13 195.96 325.95 196.05C326.78 196.15 327.52 195.57 327.62 194.75C327.72 193.93 327.13 193.18 326.31 193.09C325.49 192.99 324.74 193.57 324.64 194.39Z" fill="#EDCAB8" fill-opacity="1.000000" fill-rule="nonzero"/>
		</g>
		<g opacity="0.280000">
			<path id="Vector" d="M316.76 210.6C316.66 211.42 317.25 212.16 318.07 212.26C318.89 212.36 319.64 211.77 319.74 210.95C319.84 210.13 319.25 209.39 318.43 209.29C317.6 209.2 316.86 209.78 316.76 210.6Z" fill="#EDCAB8" fill-opacity="1.000000" fill-rule="nonzero"/>
		</g>
		<g opacity="0.280000">
			<path id="Vector" d="M320.67 203.15C320.57 203.97 321.16 204.72 321.98 204.81C322.8 204.91 323.55 204.33 323.65 203.51C323.74 202.69 323.16 201.94 322.34 201.84C321.51 201.75 320.77 202.33 320.67 203.15Z" fill="#EDCAB8" fill-opacity="1.000000" fill-rule="nonzero"/>
		</g>
		<g opacity="0.280000">
			<path id="Vector" d="M312.54 203.69C312.44 204.51 313.03 205.25 313.85 205.35C314.67 205.45 315.41 204.86 315.51 204.04C315.61 203.22 315.02 202.48 314.2 202.38C313.38 202.29 312.63 202.87 312.54 203.69Z" fill="#EDCAB8" fill-opacity="1.000000" fill-rule="nonzero"/>
		</g>
		<g opacity="0.280000">
			<path id="Vector" d="M304 205.69C303.9 206.51 304.49 207.25 305.31 207.35C306.13 207.44 306.88 206.86 306.98 206.04C307.07 205.22 306.49 204.48 305.67 204.38C304.85 204.28 304.1 204.87 304 205.69Z" fill="#EDCAB8" fill-opacity="1.000000" fill-rule="nonzero"/>
		</g>
		<g opacity="0.280000">
			<path id="Vector" d="M303.99 218.39C303.9 219.21 304.48 219.95 305.3 220.05C306.13 220.14 306.87 219.56 306.97 218.74C307.07 217.92 306.48 217.18 305.66 217.08C304.84 216.98 304.09 217.57 303.99 218.39Z" fill="#EDCAB8" fill-opacity="1.000000" fill-rule="nonzero"/>
		</g>
		<g opacity="0.280000">
			<path id="Vector" d="M285.45 232.86C285.35 233.68 285.94 234.43 286.76 234.53C287.58 234.62 288.33 234.04 288.43 233.22C288.52 232.4 287.94 231.65 287.11 231.56C286.29 231.46 285.55 232.04 285.45 232.86Z" fill="#EDCAB8" fill-opacity="1.000000" fill-rule="nonzero"/>
		</g>
		<g opacity="0.280000">
			<path id="Vector" d="M293.07 286.04C292.97 286.86 293.56 287.6 294.38 287.7C295.2 287.8 295.95 287.22 296.05 286.4C296.15 285.58 295.56 284.83 294.74 284.73C293.92 284.64 293.17 285.22 293.07 286.04Z" fill="#EDCAB8" fill-opacity="1.000000" fill-rule="nonzero"/>
		</g>
		<g opacity="0.280000">
			<path id="Vector" d="M307.51 226.81C307.42 227.63 308 228.37 308.82 228.47C309.65 228.57 310.39 227.98 310.49 227.16C310.59 226.34 310 225.6 309.18 225.5C308.36 225.4 307.61 225.99 307.51 226.81Z" fill="#EDCAB8" fill-opacity="1.000000" fill-rule="nonzero"/>
		</g>
		<g opacity="0.280000">
			<path id="Vector" d="M309.3 211.83C309.21 212.65 309.79 213.39 310.61 213.49C311.44 213.59 312.18 213 312.28 212.18C312.38 211.36 311.79 210.62 310.97 210.52C310.15 210.42 309.4 211.01 309.3 211.83Z" fill="#EDCAB8" fill-opacity="1.000000" fill-rule="nonzero"/>
		</g>
		<g opacity="0.280000">
			<path id="Vector" d="M312.17 219.36C312.07 220.18 312.66 220.92 313.48 221.02C314.31 221.12 315.05 220.53 315.15 219.71C315.25 218.89 314.66 218.15 313.84 218.05C313.02 217.95 312.27 218.54 312.17 219.36Z" fill="#EDCAB8" fill-opacity="1.000000" fill-rule="nonzero"/>
		</g>
		<g opacity="0.280000">
			<path id="Vector" d="M303.64 235.25C303.67 236.08 304.36 236.73 305.19 236.7C306.01 236.67 306.67 235.98 306.64 235.16C306.61 234.33 305.92 233.69 305.09 233.71C304.27 233.74 303.62 234.43 303.64 235.25Z" fill="#EDCAB8" fill-opacity="1.000000" fill-rule="nonzero"/>
		</g>
		<g opacity="0.280000">
			<path id="Vector" d="M298.28 252.45C298.3 253.28 299 253.93 299.82 253.9C300.65 253.87 301.3 253.19 301.27 252.36C301.25 251.54 300.56 250.89 299.73 250.91C298.9 250.94 298.25 251.63 298.28 252.45Z" fill="#EDCAB8" fill-opacity="1.000000" fill-rule="nonzero"/>
		</g>
		<g opacity="0.280000">
			<path id="Vector" d="M301.03 244.51C301.05 245.33 301.75 245.98 302.57 245.95C303.4 245.93 304.05 245.24 304.02 244.41C304 243.59 303.31 242.94 302.48 242.97C301.65 242.99 301 243.68 301.03 244.51Z" fill="#EDCAB8" fill-opacity="1.000000" fill-rule="nonzero"/>
		</g>
		<g opacity="0.280000">
			<path id="Vector" d="M296.32 237.72C296.34 238.54 297.03 239.19 297.86 239.17C298.69 239.14 299.34 238.45 299.31 237.63C299.29 236.8 298.59 236.15 297.77 236.18C296.94 236.2 296.29 236.89 296.32 237.72Z" fill="#EDCAB8" fill-opacity="1.000000" fill-rule="nonzero"/>
		</g>
		<g opacity="0.280000">
			<path id="Vector" d="M293.07 246.25C293.09 247.08 293.78 247.72 294.61 247.7C295.44 247.67 296.09 246.98 296.06 246.16C296.04 245.33 295.34 244.69 294.52 244.71C293.69 244.74 293.04 245.43 293.07 246.25Z" fill="#EDCAB8" fill-opacity="1.000000" fill-rule="nonzero"/>
		</g>
		<g opacity="0.280000">
			<path id="Vector" d="M295.35 225.59C295.37 226.41 296.06 227.06 296.89 227.03C297.72 227.01 298.37 226.32 298.34 225.49C298.32 224.67 297.62 224.02 296.8 224.04C295.97 224.07 295.32 224.76 295.35 225.59Z" fill="#EDCAB8" fill-opacity="1.000000" fill-rule="nonzero"/>
		</g>
		<g opacity="0.280000">
			<path id="Vector" d="M286.82 262.06C286.85 262.88 287.54 263.53 288.36 263.5C289.19 263.48 289.84 262.79 289.82 261.96C289.79 261.14 289.1 260.49 288.27 260.51C287.44 260.54 286.79 261.23 286.82 262.06Z" fill="#EDCAB8" fill-opacity="1.000000" fill-rule="nonzero"/>
		</g>
		<g opacity="0.280000">
			<path id="Vector" d="M291.56 269.86C291.59 270.68 292.28 271.33 293.11 271.31C293.94 271.28 294.58 270.59 294.56 269.76C294.53 268.94 293.84 268.29 293.01 268.32C292.19 268.34 291.54 269.03 291.56 269.86Z" fill="#EDCAB8" fill-opacity="1.000000" fill-rule="nonzero"/>
		</g>
		<g opacity="0.280000">
			<path id="Vector" d="M291.09 254.78C291.12 255.61 291.81 256.25 292.63 256.23C293.46 256.2 294.11 255.51 294.09 254.69C294.06 253.86 293.37 253.21 292.54 253.24C291.71 253.27 291.06 253.96 291.09 254.78Z" fill="#EDCAB8" fill-opacity="1.000000" fill-rule="nonzero"/>
		</g>
		<g opacity="0.280000">
			<path id="Vector" d="M295.05 261.8C295.08 262.62 295.77 263.27 296.6 263.24C297.43 263.22 298.08 262.53 298.05 261.7C298.02 260.88 297.33 260.23 296.51 260.26C295.68 260.28 295.03 260.97 295.05 261.8Z" fill="#EDCAB8" fill-opacity="1.000000" fill-rule="nonzero"/>
		</g>
		<g opacity="0.280000">
			<path id="Vector" d="M197.4 261.53C197.9 262.18 198.84 262.31 199.5 261.81C200.16 261.31 200.29 260.37 199.78 259.71C199.28 259.06 198.34 258.93 197.68 259.43C197.03 259.93 196.9 260.87 197.4 261.53Z" fill="#EDCAB8" fill-opacity="1.000000" fill-rule="nonzero"/>
		</g>
		<g opacity="0.280000">
			<path id="Vector" d="M219.3 289.33C219.8 289.99 220.74 290.11 221.4 289.61C222.06 289.11 222.19 288.17 221.68 287.52C221.18 286.86 220.24 286.74 219.58 287.24C218.93 287.74 218.8 288.68 219.3 289.33Z" fill="#EDCAB8" fill-opacity="1.000000" fill-rule="nonzero"/>
		</g>
		<g opacity="0.280000">
			<path id="Vector" d="M208.67 247.99C209.26 248.56 210.21 248.55 210.79 247.95C211.36 247.36 211.35 246.41 210.75 245.84C210.16 245.26 209.21 245.28 208.63 245.87C208.06 246.47 208.07 247.41 208.67 247.99Z" fill="#EDCAB8" fill-opacity="1.000000" fill-rule="nonzero"/>
		</g>
		<g opacity="0.280000">
			<path id="Vector" d="M190.24 174.93C190.83 175.5 191.78 175.48 192.36 174.89C192.93 174.3 192.92 173.35 192.32 172.78C191.73 172.2 190.78 172.22 190.2 172.81C189.63 173.4 189.64 174.35 190.24 174.93Z" fill="#EDCAB8" fill-opacity="1.000000" fill-rule="nonzero"/>
		</g>
		<g opacity="0.280000">
			<path id="Vector" d="M199.96 175.54C200.56 176.12 201.51 176.1 202.08 175.51C202.66 174.91 202.64 173.97 202.05 173.39C201.45 172.82 200.5 172.84 199.93 173.43C199.35 174.02 199.37 174.97 199.96 175.54Z" fill="#EDCAB8" fill-opacity="1.000000" fill-rule="nonzero"/>
		</g>
		<g opacity="0.280000">
			<path id="Vector" d="M244.76 168.68C245.35 169.26 246.3 169.24 246.88 168.65C247.45 168.06 247.44 167.11 246.84 166.54C246.25 165.96 245.3 165.98 244.72 166.57C244.15 167.16 244.16 168.11 244.76 168.68Z" fill="#EDCAB8" fill-opacity="1.000000" fill-rule="nonzero"/>
		</g>
		<g opacity="0.280000">
			<path id="Vector" d="M219.11 165.22C219.7 165.79 220.65 165.78 221.23 165.19C221.8 164.59 221.79 163.65 221.19 163.07C220.6 162.5 219.65 162.51 219.07 163.11C218.5 163.7 218.51 164.65 219.11 165.22Z" fill="#EDCAB8" fill-opacity="1.000000" fill-rule="nonzero"/>
		</g>
		<g opacity="0.280000">
			<path id="Vector" d="M204.85 168.68C205.45 169.26 206.4 169.24 206.97 168.65C207.55 168.06 207.53 167.11 206.94 166.54C206.35 165.96 205.4 165.98 204.82 166.57C204.24 167.16 204.26 168.11 204.85 168.68Z" fill="#EDCAB8" fill-opacity="1.000000" fill-rule="nonzero"/>
		</g>
		<g opacity="0.280000">
			<path id="Vector" d="M213.11 171.67C213.71 172.25 214.66 172.23 215.23 171.64C215.81 171.05 215.79 170.1 215.2 169.53C214.6 168.95 213.65 168.97 213.08 169.56C212.5 170.15 212.52 171.1 213.11 171.67Z" fill="#EDCAB8" fill-opacity="1.000000" fill-rule="nonzero"/>
		</g>
		<g opacity="0.280000">
			<path id="Vector" d="M236.86 174.05C237.45 174.62 238.4 174.61 238.98 174.01C239.55 173.42 239.54 172.47 238.94 171.9C238.35 171.33 237.4 171.34 236.82 171.93C236.25 172.53 236.26 173.47 236.86 174.05Z" fill="#EDCAB8" fill-opacity="1.000000" fill-rule="nonzero"/>
		</g>
		<g opacity="0.280000">
			<path id="Vector" d="M226.28 170.76C226.88 171.34 227.83 171.32 228.4 170.73C228.98 170.14 228.96 169.19 228.37 168.62C227.77 168.04 226.83 168.06 226.25 168.65C225.67 169.24 225.69 170.19 226.28 170.76Z" fill="#EDCAB8" fill-opacity="1.000000" fill-rule="nonzero"/>
		</g>
		<g opacity="0.280000">
			<path id="Vector" d="M235.36 190C235.96 190.57 236.9 190.56 237.48 189.96C238.06 189.37 238.04 188.42 237.45 187.85C236.85 187.28 235.9 187.29 235.33 187.88C234.75 188.48 234.77 189.42 235.36 190Z" fill="#EDCAB8" fill-opacity="1.000000" fill-rule="nonzero"/>
		</g>
		<g opacity="0.280000">
			<path id="Vector" d="M188.74 156.52C189.33 157.09 190.28 157.08 190.86 156.48C191.43 155.89 191.42 154.94 190.82 154.37C190.23 153.79 189.28 153.81 188.7 154.4C188.13 155 188.14 155.94 188.74 156.52Z" fill="#EDCAB8" fill-opacity="1.000000" fill-rule="nonzero"/>
		</g>
		<g opacity="0.280000">
			<path id="Vector" d="M175.4 143.04C176 143.61 176.95 143.6 177.52 143C178.1 142.41 178.08 141.47 177.49 140.89C176.89 140.32 175.94 140.33 175.37 140.93C174.79 141.52 174.81 142.47 175.4 143.04Z" fill="#EDCAB8" fill-opacity="1.000000" fill-rule="nonzero"/>
		</g>
		<g opacity="0.280000">
			<path id="Vector" d="M176.86 153.53C177.46 154.1 178.41 154.09 178.98 153.49C179.56 152.9 179.54 151.95 178.95 151.38C178.35 150.81 177.4 150.82 176.83 151.41C176.25 152.01 176.27 152.95 176.86 153.53Z" fill="#EDCAB8" fill-opacity="1.000000" fill-rule="nonzero"/>
		</g>
		<g opacity="0.280000">
			<path id="Vector" d="M232.09 165.22C232.68 165.79 233.63 165.78 234.2 165.19C234.78 164.59 234.77 163.65 234.17 163.07C233.57 162.5 232.63 162.51 232.05 163.11C231.48 163.7 231.49 164.65 232.09 165.22Z" fill="#EDCAB8" fill-opacity="1.000000" fill-rule="nonzero"/>
		</g>
		<g opacity="0.280000">
			<path id="Vector" d="M216.74 264.42C217.33 264.99 218.28 264.98 218.86 264.38C219.43 263.79 219.42 262.84 218.82 262.27C218.23 261.69 217.28 261.71 216.71 262.3C216.13 262.9 216.14 263.84 216.74 264.42Z" fill="#EDCAB8" fill-opacity="1.000000" fill-rule="nonzero"/>
		</g>
		<g opacity="0.280000">
			<path id="Vector" d="M213.16 255.81C213.76 256.38 214.71 256.37 215.28 255.77C215.86 255.18 215.84 254.23 215.25 253.66C214.65 253.09 213.7 253.1 213.13 253.7C212.55 254.29 212.57 255.23 213.16 255.81Z" fill="#EDCAB8" fill-opacity="1.000000" fill-rule="nonzero"/>
		</g>
		<g opacity="0.280000">
			<path id="Vector" d="M202.72 255.03C203.32 255.61 204.27 255.59 204.84 255C205.42 254.41 205.4 253.46 204.81 252.89C204.21 252.31 203.26 252.33 202.69 252.92C202.11 253.51 202.13 254.46 202.72 255.03Z" fill="#EDCAB8" fill-opacity="1.000000" fill-rule="nonzero"/>
		</g>
		<g opacity="0.280000">
			<path id="Vector" d="M207.17 263.31C207.76 263.88 208.71 263.87 209.29 263.28C209.86 262.68 209.85 261.74 209.25 261.16C208.66 260.59 207.71 260.6 207.13 261.2C206.56 261.79 206.57 262.74 207.17 263.31Z" fill="#EDCAB8" fill-opacity="1.000000" fill-rule="nonzero"/>
		</g>
		<g opacity="0.280000">
			<path id="Vector" d="M213.72 278.99C214.31 279.57 215.26 279.55 215.84 278.96C216.42 278.36 216.4 277.42 215.81 276.84C215.21 276.27 214.26 276.28 213.69 276.88C213.11 277.47 213.13 278.42 213.72 278.99Z" fill="#EDCAB8" fill-opacity="1.000000" fill-rule="nonzero"/>
		</g>
		<g opacity="0.280000">
			<path id="Vector" d="M222.57 281.3C223.17 281.87 224.12 281.85 224.69 281.26C225.27 280.67 225.25 279.72 224.66 279.15C224.06 278.57 223.11 278.59 222.54 279.18C221.96 279.78 221.98 280.72 222.57 281.3Z" fill="#EDCAB8" fill-opacity="1.000000" fill-rule="nonzero"/>
		</g>
		<g opacity="0.280000">
			<path id="Vector" d="M224.61 303.7C225.2 304.27 226.15 304.25 226.72 303.66C227.3 303.07 227.28 302.12 226.69 301.55C226.1 300.97 225.15 300.99 224.57 301.58C224 302.17 224.01 303.12 224.61 303.7Z" fill="#EDCAB8" fill-opacity="1.000000" fill-rule="nonzero"/>
		</g>
		<g opacity="0.280000">
			<path id="Vector" d="M211.71 270.81C212.3 271.38 213.25 271.37 213.83 270.77C214.4 270.18 214.39 269.23 213.79 268.66C213.2 268.08 212.25 268.1 211.67 268.69C211.1 269.29 211.11 270.23 211.71 270.81Z" fill="#EDCAB8" fill-opacity="1.000000" fill-rule="nonzero"/>
		</g>
		<g opacity="0.280000">
			<path id="Vector" d="M221.07 273.09C221.67 273.66 222.62 273.65 223.19 273.05C223.77 272.46 223.75 271.51 223.16 270.94C222.56 270.36 221.61 270.38 221.04 270.97C220.46 271.57 220.48 272.51 221.07 273.09Z" fill="#EDCAB8" fill-opacity="1.000000" fill-rule="nonzero"/>
		</g>
		<g opacity="0.160000">
			<path id="Vector" d="M268.15 130.21L262.93 131.95C262.93 131.95 259.48 123.77 250.22 117.62C248.7 119.55 242.99 119.56 236.73 117.51C231.54 115.81 227.48 113.2 226.21 110.96C202.24 111.14 191.02 126.71 188.7 130.09C172.78 126.27 165.91 128.1 165.91 128.1C173.05 127.88 178.45 129.59 182.53 132.37C182.59 132.25 182.65 132.13 182.74 132.03C183.93 130.62 188.06 132.14 191.95 135.42C195.84 138.71 198.02 142.52 196.83 143.93C196 144.9 193.78 144.48 191.21 143.05C195.93 153.35 194.96 165.18 194.96 165.18C217.3 155.68 243.79 157.78 259.82 165.77C259.82 165.77 257.76 162.89 256.95 158.18C256.7 158.31 256.43 158.35 256.14 158.28C254.35 157.82 252.49 153.43 253.75 148.5C255.01 143.57 258.9 139.98 260.7 140.43C260.98 140.5 261.19 140.68 261.35 140.94C262.25 139.85 263.32 138.72 264.54 137.57C264.5 137.53 264.45 137.5 264.41 137.46C263.88 136.78 264.61 135.32 266.04 134.19C267.45 133.09 268.99 132.72 269.57 133.34C276.85 127.83 286.57 122.83 295.54 122.04C295.54 122.04 281.37 121.7 268.15 130.21ZM204.9 147.92C204.19 148.67 202.53 148.26 201.21 147C199.88 145.75 199.39 144.12 200.11 143.37C200.82 142.63 202.47 143.04 203.8 144.29C205.12 145.55 205.61 147.17 204.9 147.92ZM221.98 119.97C219.41 119.97 217.33 118.79 217.33 117.34C217.33 115.89 219.41 114.71 221.98 114.71C224.54 114.71 226.63 115.89 226.63 117.34C226.63 118.79 224.54 119.97 221.98 119.97Z" fill="#EDCAB8" fill-opacity="1.000000" fill-rule="nonzero"/>
		</g>
		<path id="Vector" d="M234.78 155.75C246.4 137.98 268.67 130.55 268.67 130.55C268.67 130.55 249.09 133.86 228.15 154.81C204.94 130.01 185.38 128.16 185.38 128.16C185.38 128.16 205.6 133.74 221.52 155.14C192.95 159.59 179.4 178.74 179.4 178.74C179.4 178.74 196.39 159.24 227.15 159.24C257.91 159.24 273.89 181.46 273.89 181.46C273.89 181.46 267.52 160.99 234.78 155.75Z" fill="#EDCAB8" fill-opacity="1.000000" fill-rule="nonzero"/>
		<g opacity="0.160000">
			<path id="Vector" d="M261.89 135.22C262.24 140.85 240.67 149.52 208.94 151.49C177.21 153.46 147.26 149 146.91 143.37C146.56 137.74 174.3 127 206.03 125.03C237.76 123.06 261.54 129.59 261.89 135.22Z" fill="#0D0D0D" fill-opacity="1.000000" fill-rule="nonzero"/>
		</g>
		<path id="Vector" d="M189.54 110.96C189.54 110.96 179.2 106.83 174.34 113.38C169.49 119.93 182.28 129.57 182.28 129.57C182.28 129.57 172.61 124.36 160.37 127.5L159.92 131.35C159.92 131.35 166.74 131.94 173.67 133.35C180.24 134.67 186.86 136.89 190 134.01C194.62 129.77 189.54 110.96 189.54 110.96Z" fill="#192735" fill-opacity="1.000000" fill-rule="nonzero"/>
		<path id="Vector" d="M187.19 106.88C187.19 106.88 180.36 102.88 174.81 110.36C170.23 116.53 180.13 130.47 183.78 134.25C183.98 134.46 183.71 134.81 183.44 134.68C179.92 133.02 170.93 129.67 160.13 132.45L159.55 136.51C159.55 136.51 167.67 137.86 176.07 139.01C181.63 139.76 187.54 141.5 190.48 138.81C195.76 133.97 187.19 106.88 187.19 106.88Z" fill="#192735" fill-opacity="1.000000" fill-rule="nonzero"/>
		<path id="Vector" d="M161.2 133.23L157.25 132.25L154.18 132.65L155.24 140.84C155.24 140.84 160.39 142.58 160.92 140.65C161.31 139.3 158.23 138.77 158.23 138.77L157.83 136.65L161.08 135.52L161.2 133.23Z" fill="#192735" fill-opacity="1.000000" fill-rule="nonzero"/>
		<path id="Vector" d="M161.17 127.79L157.22 126.8L154.53 130.3L155.21 135.4L163.22 135.93L158.2 133.32L157.8 131.21L161.05 130.08L161.17 127.79Z" fill="#192735" fill-opacity="1.000000" fill-rule="nonzero"/>
		<path id="Vector" d="M229.01 140.74C229.56 140.57 230.65 139.27 231.12 139.3C231.59 139.33 230.52 140.76 230.52 140.76C230.52 140.76 234.25 140.3 234.56 140.61C234.75 140.81 233.87 142.22 233.2 142.66C232.54 143.1 228.94 142.87 228.94 142.87C228.3 142.67 224.46 142.28 224.46 142.28L225.97 140.88C225.97 140.88 228.45 140.91 229.01 140.74Z" fill="#E9A981" fill-opacity="1.000000" fill-rule="nonzero"/>
		<path id="Vector" d="M220.86 132.93C220.45 130.97 225.71 127.83 229 128.59C232.3 129.36 231.83 128.08 235.06 127.75C238.28 127.42 249.36 127.72 249.62 129.96C249.91 132.46 240.7 130.14 238.06 132.84C235.46 135.49 231.85 136.79 230.09 135.18C228.34 133.57 221.28 134.89 220.86 132.93Z" fill="#192735" fill-opacity="1.000000" fill-rule="nonzero"/>
		<path id="Vector" d="M237.09 129.31C237.1 128.98 234.71 128.71 234.25 128.79C233.93 128.85 232.52 129.07 231.64 129.2C230.92 128.19 229.98 127.18 229.98 127.18L228.52 128.76C228.52 128.76 229.68 129.96 230.75 130.72C231.06 131.03 231.45 131.29 231.87 131.28C232.07 131.33 232.25 131.31 232.37 131.2C233.69 130.81 237.08 129.62 237.09 129.31Z" fill="#E9A981" fill-opacity="1.000000" fill-rule="nonzero"/>
		<path id="Vector" d="M231.71 131.25C231.71 131.25 233.46 131.66 234.13 131.41C234.84 131.14 231.81 130.5 231.81 130.5L231.71 131.25Z" fill="#E9A981" fill-opacity="1.000000" fill-rule="nonzero"/>
		<path id="Vector" d="M218.14 124.47L229.25 129.77L230.94 127.38L218.59 115.23L218.14 124.47Z" fill="#C5DBEF" fill-opacity="1.000000" fill-rule="nonzero"/>
		<path id="Vector" d="M216.1 113.08L216.04 117.84L223.83 116.19C223.83 116.19 224.33 124.88 233.15 117.24C236.19 114.62 234.5 109.7 228.79 110.65C223.21 111.57 216.1 113.08 216.1 113.08Z" fill="#E9A981" fill-opacity="1.000000" fill-rule="nonzero"/>
		<path id="Vector" d="M223.59 113.13C223.59 113.13 222.92 107.16 230.72 106.73C237.2 106.37 239.23 116.35 234.69 117.62C233.28 118.01 231.95 117.07 231.44 116.08C230.86 114.96 231.29 112.49 228.61 113.2C228.61 113.2 225.27 115.47 223.59 113.13Z" fill="#192735" fill-opacity="1.000000" fill-rule="nonzero"/>
		<path id="Vector" d="M233.66 107.24C233.53 108.17 232.22 108.84 230.74 108.75C229.25 108.65 228.16 107.81 228.29 106.88C228.42 105.95 229.73 105.28 231.21 105.38C232.7 105.48 233.79 106.31 233.66 107.24Z" fill="#FFFFFF" fill-opacity="1.000000" fill-rule="nonzero"/>
		<path id="Vector" d="M235.54 104.81C235.2 107.22 233.18 108.05 230.84 107.89C228.51 107.74 226.75 106.68 227.09 104.26C227.44 101.84 229.46 101.02 231.79 101.18C234.12 101.33 235.88 102.41 235.54 104.81Z" fill="#192735" fill-opacity="1.000000" fill-rule="nonzero"/>
		<path id="Vector" d="M225.6 118.77L225.24 118.77C225.24 118.48 225.38 111.69 227.9 111.69C227.9 111.69 227.91 111.69 227.92 111.69C228.38 111.7 228.76 111.88 229.04 112.23C230.13 113.58 229.43 117.08 229.4 117.23L229.05 117.15C229.06 117.12 229.75 113.68 228.76 112.45C228.54 112.19 228.27 112.05 227.91 112.05C227.91 112.05 227.9 112.05 227.9 112.05C226.1 112.05 225.62 116.9 225.6 118.77Z" fill="#FFFFFF" fill-opacity="1.000000" fill-rule="nonzero"/>
		<path id="Vector" d="M229.54 116.56L231.24 118.83C231.24 118.83 226.76 122.85 223.82 118.74L229.09 116.38C229.27 116.29 229.48 116.38 229.54 116.56Z" fill="#FFFFFF" fill-opacity="1.000000" fill-rule="nonzero"/>
		<path id="Vector" d="M229.15 114.2C229.15 114.2 229.88 111.89 228.02 111.87C226.01 111.84 225.84 113.93 226.53 114.56L229.15 114.2Z" fill="#E9A981" fill-opacity="1.000000" fill-rule="nonzero"/>
		<path id="Vector" d="M181.97 105.24C181.97 105.24 217.67 103.63 220.19 113.53C222.72 123.44 211.93 140.11 229.26 139.71C229.26 139.71 229.16 141.74 227.77 143.25C227.77 143.25 214.59 143.55 212.77 138.43C210.95 133.31 210.71 123.37 210.71 123.37C210.71 123.37 207.66 128.16 204.84 126.59C197.2 122.33 193.81 130.91 191.19 130.74C191.19 130.74 186.7 127.75 183.99 123.03C180.94 117.72 179.73 110.37 181.97 105.24Z" fill="#FFFFFF" fill-opacity="1.000000" fill-rule="nonzero"/>
		<path id="Vector" d="M130.96 346.3C130.96 350.54 115.97 353.98 97.48 353.98C78.99 353.98 64 350.54 64 346.3C64 342.06 78.99 338.62 97.48 338.62C115.97 338.62 130.96 342.06 130.96 346.3Z" fill="#656972" fill-opacity="1.000000" fill-rule="evenodd"/>
		<path id="Vector" d="M92.83 340.15L92.83 343.31C92.83 343.31 99.82 343.47 99.92 342.94C100.12 341.96 95.1 341.73 95.1 341.73L94.69 339.88L92.83 340.15Z" fill="#192735" fill-opacity="1.000000" fill-rule="nonzero"/>
		<path id="Vector" d="M99.08 271.97C98.34 271.5 96.6 270.77 96.6 270.77L98.25 274.11C98.25 274.11 99.81 272.44 99.08 271.97Z" fill="#E9A981" fill-opacity="1.000000" fill-rule="nonzero"/>
		<path id="Vector" d="M130.63 246.22C115.95 264.88 83.08 307.09 72.94 320.11C71.29 322.23 71.77 325.3 73.98 326.82C76.1 328.27 78.98 327.76 80.46 325.68L135.18 248.65C133.62 247.92 132.11 247.11 130.63 246.22Z" fill="#2D2D2D" fill-opacity="1.000000" fill-rule="nonzero"/>
		<path id="Vector" d="M154.9 181.88C133.96 181.88 116.99 198.81 116.99 219.69C116.99 240.58 133.96 257.51 154.9 257.51C175.84 257.51 192.81 240.58 192.81 219.69C192.81 198.81 175.84 181.88 154.9 181.88ZM154.9 252.94C136.49 252.94 121.57 238.05 121.57 219.69C121.57 201.33 136.49 186.45 154.9 186.45C173.3 186.45 188.23 201.33 188.23 219.69C188.23 238.05 173.3 252.94 154.9 252.94Z" fill="#2D2D2D" fill-opacity="1.000000" fill-rule="nonzero"/>
		<g opacity="0.140000">
			<path id="Vector" d="M153.44 251.68C135.04 251.68 120.12 236.8 120.12 218.44C120.12 200.08 135.04 185.2 153.44 185.2C171.85 185.2 186.77 200.08 186.77 218.44C186.77 236.8 171.85 251.68 153.44 251.68Z" fill="#FFFFFF" fill-opacity="1.000000" fill-rule="nonzero"/>
		</g>
		<g opacity="0.140000">
			<path id="Vector" d="M182.06 235.47C181.94 235.21 181.82 234.94 181.69 234.67C177.59 226.61 170.45 221.03 163.77 215.18C157.3 209.52 150.38 203.55 146.22 195.9C144.68 193.08 143.6 189.96 143.43 186.74C141.25 187.43 139.16 188.32 137.21 189.41C137.31 192.84 138.27 196.24 140.04 199.05C144.37 205.92 151.76 210.39 155.27 217.85C159.35 226.52 157.23 237.01 154.78 245.83C154.24 247.78 153.67 249.73 153.09 251.67C153.21 251.67 153.33 251.68 153.44 251.68C165.61 251.68 176.24 245.18 182.06 235.47Z" fill="#FFFFFF" fill-opacity="1.000000" fill-rule="nonzero"/>
		</g>
		<path id="Vector" d="M102.71 305.51L88.02 305.51C88.02 305.51 92.13 318.84 90.01 324.78C87.89 330.72 92.39 341.01 92.39 341.01L95.3 340.97L97.14 311.43L102.18 320.43C102.18 320.43 101.78 323.33 99.67 329.27C97.55 335.21 99.01 341.01 99.01 341.01L101.92 340.97C101.92 340.97 108.4 322.93 108.53 319.11C108.66 315.28 102.71 305.51 102.71 305.51Z" fill="#192735" fill-opacity="1.000000" fill-rule="nonzero"/>
		<path id="Vector" d="M103.31 283.67L107.7 273.1L106.24 272.14L94.91 283.67L103.31 283.67Z" fill="#FFFFFF" fill-opacity="1.000000" fill-rule="nonzero"/>
		<path id="Vector" d="M129.69 245.31C115.07 263.88 82.03 306.29 71.86 319.36C70.21 321.48 70.69 324.55 72.91 326.07C75.02 327.52 77.9 327.01 79.39 324.92L134.25 247.7C132.76 246.83 131.25 246.01 129.69 245.31Z" fill="#EDCAB8" fill-opacity="1.000000" fill-rule="nonzero"/>
		<path id="Vector" d="M153.44 180.62C132.5 180.62 115.53 197.55 115.53 218.44C115.53 239.32 132.5 256.25 153.44 256.25C174.38 256.25 191.36 239.32 191.36 218.44C191.36 197.55 174.38 180.62 153.44 180.62ZM153.44 251.68C135.04 251.68 120.12 236.8 120.12 218.44C120.12 200.08 135.04 185.2 153.44 185.2C171.85 185.2 186.77 200.08 186.77 218.44C186.77 236.8 171.85 251.68 153.44 251.68Z" fill="#EDCAB8" fill-opacity="1.000000" fill-rule="nonzero"/>
		<path id="Vector" d="M94.13 286.94L98.41 286.28L96.27 279.61C96.27 279.61 104.43 277.8 96 270.01C93.44 267.64 88.92 268.96 90.25 273.88C91.56 278.69 94.13 286.94 94.13 286.94Z" fill="#E9A981" fill-opacity="1.000000" fill-rule="nonzero"/>
		<path id="Vector" d="M97.81 277.75C96.57 277.75 93.28 277.64 92.16 276.51C91.87 276.22 91.73 275.88 91.74 275.5C91.76 275.04 91.95 274.67 92.3 274.37C93.6 273.31 96.83 273.78 96.97 273.8L96.88 274.41C96.02 274.28 93.6 274.1 92.7 274.85C92.48 275.03 92.37 275.25 92.36 275.52C92.35 275.73 92.43 275.91 92.6 276.08C93.57 277.06 97.03 277.17 98.27 277.13L98.29 277.74C98.26 277.74 98.08 277.75 97.81 277.75Z" fill="#FFFFFF" fill-opacity="1.000000" fill-rule="nonzero"/>
		<path id="Vector" d="M96.35 273.86L99.12 272.11C99.12 272.11 102.02 276.06 98.22 278.85L96.18 274.27C96.11 274.11 96.19 273.92 96.35 273.86Z" fill="#FFFFFF" fill-opacity="1.000000" fill-rule="nonzero"/>
		<path id="Vector" d="M93.13 276.85C92.89 274.99 92.87 274.22 92.87 274.22L93.36 273.81C93.61 273.6 93.66 273.25 93.49 272.97C93.18 272.47 92.8 271.7 93.13 271.45C98.28 267.63 95.22 266.17 92.45 267.18C91.14 267.66 86.91 269.77 88.31 271.57C88.22 271.46 87.5 273.26 87.51 273.59C87.54 274.19 87.98 274.64 88.1 275.2C88.22 275.73 88.08 276.22 88.15 276.76C88.55 279.84 93.38 278.7 93.13 276.85Z" fill="#192735" fill-opacity="1.000000" fill-rule="nonzero"/>
		<path id="Vector" d="M94.2 274.31C94.2 274.31 92.11 273.76 92.05 275.41C91.98 277.21 94.2 277.12 94.78 276.47L94.2 274.31Z" fill="#E9A981" fill-opacity="1.000000" fill-rule="nonzero"/>
		<path id="Vector" d="M87.02 310.74C87.02 310.74 82.91 288.18 88.69 283.8C96.22 278.09 117.43 288.52 117.43 273.1C117.43 273.1 119.28 273.1 120.62 274.27C120.62 274.27 120.62 286 115.92 287.85C111.21 289.69 103.63 291.28 103.63 291.28C103.63 291.28 107.52 305.54 107.18 309.4C107.18 309.4 95.75 314.09 87.02 310.74Z" fill="#FFFFFF" fill-opacity="1.000000" fill-rule="nonzero"/>
		<path id="Vector" d="M106.35 272.25C106.35 272.25 108.39 268.97 110.66 269.55L107.81 273.2L106.35 272.25Z" fill="#E9A981" fill-opacity="1.000000" fill-rule="nonzero"/>
		<path id="Vector" d="M100.57 339.34L99.04 342.9L102.55 346.3C102.55 346.3 106.39 346.39 106.77 345.82C107.51 344.74 103.22 344.36 103.22 344.36L101.81 342.01L101.87 339.34L100.57 339.34L100.57 339.34Z" fill="#192735" fill-opacity="1.000000" fill-rule="nonzero"/>
		<path id="Vector" d="M117.43 273.1C117.43 273.1 115.98 270.03 116.3 269.82C116.62 269.6 117.8 271.42 117.8 271.42C117.8 271.42 117.69 267.68 118.01 267.79C118.33 267.9 118.55 271.31 118.55 271.31C118.55 271.31 118.76 267.47 119.19 267.58C119.62 267.68 119.4 271.31 119.4 271.31C119.4 271.31 119.94 268.54 120.37 268.22C120.79 267.9 120.04 271.63 120.04 271.63C120.04 271.63 120.9 269.29 121.22 269.39C121.54 269.5 120.26 273.88 120.26 273.88L117.43 273.1Z" fill="#E9A981" fill-opacity="1.000000" fill-rule="nonzero"/>
		<path id="Vector" d="M391.57 342.22C391.57 346.93 374.92 350.75 354.37 350.75C333.83 350.75 317.18 346.93 317.18 342.22C317.18 337.51 333.83 333.69 354.37 333.69C374.92 333.69 391.57 337.51 391.57 342.22Z" fill="#656972" fill-opacity="1.000000" fill-rule="evenodd"/>
		<path id="Vector" d="M364.47 335.39L364.47 338.89C364.47 338.89 355.58 339.4 355.43 338.79C355.02 337.16 361.95 337.14 361.95 337.14L362.4 335.09L364.47 335.39Z" fill="#192735" fill-opacity="1.000000" fill-rule="nonzero"/>
		<path id="Vector" d="M356.71 260.18C357.53 259.65 360.28 258.32 360.28 258.32L358.45 262.03C358.45 262.03 355.89 260.7 356.71 260.18Z" fill="#E9A981" fill-opacity="1.000000" fill-rule="nonzero"/>
		<path id="Vector" d="M314.47 221.03C314.47 221.03 307.8 228.99 303.96 228.65C293.6 227.76 278.03 199.25 279.69 197.97C281.35 196.68 285.58 201.27 293.13 192.64L314.47 221.03Z" fill="#868686" fill-opacity="1.000000" fill-rule="nonzero"/>
		<g opacity="0.440000">
			<path id="Vector" d="M308.69 211.88L310.75 216.04C310.75 216.04 299.87 228.42 295.65 223.75C291.51 219.16 291.51 219.16 291.51 219.16C291.51 219.16 297.33 221.88 308.69 211.88Z" fill="#FFFFFF" fill-opacity="1.000000" fill-rule="nonzero"/>
		</g>
		<g opacity="0.440000">
			<path id="Vector" d="M301.13 202.76L303.19 206.92C303.19 206.92 292.76 218.34 289.1 216.01L285.64 210.88C285.64 210.88 289.1 214.86 301.13 202.76Z" fill="#FFFFFF" fill-opacity="1.000000" fill-rule="nonzero"/>
		</g>
		<g opacity="0.440000">
			<path id="Vector" d="M296.3 193.96L298.36 198.12C298.36 198.12 286.91 209.18 283.25 206.85L280.81 202.08C280.81 202.07 284.27 206.06 296.3 193.96Z" fill="#FFFFFF" fill-opacity="1.000000" fill-rule="nonzero"/>
		</g>
		<path id="Vector" d="M314.47 221.03C314.97 221.19 371.97 294.38 386.57 313.13C388.4 315.49 387.87 318.89 385.4 320.58C383.06 322.19 379.85 321.63 378.2 319.31L310.28 223.69L307.79 222.86C306.8 222.53 305.94 221.91 305.32 221.09L288.93 199.41C288.08 198.29 287.74 196.86 287.98 195.46C288.22 194.07 289.04 192.83 290.23 192.06L290.71 191.75C292 190.91 293.59 190.69 295.06 191.16L295.34 191.25C296.38 191.58 297.28 192.22 297.92 193.1L313.63 214.5C314.32 215.44 314.67 216.59 314.62 217.75L314.47 221.03Z" fill="#2D2D2D" fill-opacity="1.000000" fill-rule="nonzero"/>
		<path id="Vector" d="M353.5 296.92L369.81 296.92C369.81 296.92 365.25 311.72 367.6 318.32C369.95 324.91 364.96 336.35 364.96 336.35L361.73 336.3L359.68 303.49L354.08 313.48C354.08 313.48 354.52 316.7 356.88 323.3C359.23 329.9 357.61 336.35 357.61 336.35L354.38 336.3C354.38 336.3 347.18 316.26 347.03 312.01C346.88 307.76 353.5 296.92 353.5 296.92Z" fill="#192735" fill-opacity="1.000000" fill-rule="nonzero"/>
		<path id="Vector" d="M352.83 272.65L347.95 260.91L349.58 259.84L362.16 272.65L352.83 272.65Z" fill="#FFFFFF" fill-opacity="1.000000" fill-rule="nonzero"/>
		<path id="Vector" d="M315.67 220.19C316.17 220.36 373.16 293.54 387.76 312.29C389.6 314.65 389.06 318.06 386.6 319.75C384.25 321.36 381.05 320.79 379.4 318.47L311.47 222.85L308.98 222.02C308 221.7 307.14 221.08 306.51 220.25L290.13 198.58C289.28 197.45 288.93 196.02 289.17 194.63C289.42 193.23 290.23 192 291.42 191.22L291.9 190.91C293.19 190.07 294.79 189.86 296.26 190.32L296.54 190.41C297.57 190.74 298.48 191.39 299.12 192.26L314.83 213.67C315.52 214.61 315.87 215.75 315.82 216.92L315.67 220.19Z" fill="#EDCAB8" fill-opacity="1.000000" fill-rule="nonzero"/>
		<path id="Vector" d="M363.03 276.29L358.28 275.55L360.65 268.14C360.65 268.14 351.59 266.13 360.95 257.48C363.79 254.85 368.82 256.31 367.33 261.77C365.88 267.12 363.03 276.29 363.03 276.29Z" fill="#E9A981" fill-opacity="1.000000" fill-rule="nonzero"/>
		<path id="Vector" d="M358.94 266.04C358.64 266.04 358.44 266.03 358.41 266.03L358.43 265.42C359.82 265.46 363.66 265.34 364.75 264.24C364.95 264.05 365.04 263.84 365.03 263.6C365.02 263.28 364.89 263.03 364.64 262.82C363.63 261.99 360.93 262.19 359.97 262.33L359.88 261.72C360.03 261.7 363.6 261.17 365.03 262.35C365.42 262.67 365.63 263.08 365.64 263.57C365.66 263.99 365.51 264.36 365.19 264.67C363.95 265.91 360.32 266.04 358.94 266.04Z" fill="#FFFFFF" fill-opacity="1.000000" fill-rule="nonzero"/>
		<path id="Vector" d="M360.55 261.75L356.45 260.26C356.45 260.26 354.26 264.2 358.48 267.3L360.75 262.2C360.83 262.03 360.74 261.82 360.55 261.75Z" fill="#FFFFFF" fill-opacity="1.000000" fill-rule="nonzero"/>
		<path id="Vector" d="M368.76 265.01C368.76 265.01 369.2 267.62 367.28 268.12C365.36 268.63 363.86 267.13 364.13 265.07C364.41 263.01 364.43 262.15 364.43 262.15L363.64 260.91C363.64 260.91 364.37 259.74 364.13 259.08C363.89 258.41 356.3 251.01 361.28 249.33C364.96 248.09 365.56 251.17 366.3 253.66C366.75 255.15 367.95 256.42 367.95 256.42C367.95 256.42 372.79 258.55 371.97 261.39C371.15 264.22 368.76 265.01 368.76 265.01Z" fill="#192735" fill-opacity="1.000000" fill-rule="nonzero"/>
		<path id="Vector" d="M364.47 262.61L360.9 259.8" stroke="#FFFFFF" stroke-opacity="1.000000" stroke-width="0.535201" stroke-linejoin="round" stroke-linecap="round"/>
		<path id="Vector" d="M362.95 262.25C362.95 262.25 365.27 261.64 365.34 263.48C365.41 265.47 362.95 265.37 362.3 264.66L362.95 262.25Z" fill="#E9A981" fill-opacity="1.000000" fill-rule="nonzero"/>
		<path id="Vector" d="M358.81 260.4C359.4 260.84 360.4 260.49 361.04 259.63C361.68 258.77 361.72 257.71 361.13 257.28C360.54 256.84 359.54 257.18 358.9 258.05C358.26 258.91 358.22 259.96 358.81 260.4Z" stroke="#FFFFFF" stroke-opacity="1.000000" stroke-width="0.535201" stroke-linejoin="round"/>
		<path id="Vector" d="M370.93 302.72C370.93 302.72 372.4 271.21 365.76 270.99C355.25 270.65 337.15 278.03 337.15 260.91C337.15 260.91 335.09 260.91 333.6 262.21C333.6 262.21 333.6 275.24 338.83 277.29C344.05 279.34 352.47 281.1 352.47 281.1C352.47 281.1 348.16 296.95 348.53 301.23C348.53 301.23 361.22 306.44 370.93 302.72Z" fill="#FFFFFF" fill-opacity="1.000000" fill-rule="nonzero"/>
		<path id="Vector" d="M349.42 259.93C349.42 259.93 347.14 256.28 344.62 256.93L347.79 260.99L349.42 259.93Z" fill="#E9A981" fill-opacity="1.000000" fill-rule="nonzero"/>
		<path id="Vector" d="M356.64 334.18L357.57 339.25L354.51 341.69C354.51 341.69 347.55 343.34 347.37 341.77C347.2 340.33 352.93 340.06 352.93 340.06L354.49 337.45L354.43 334.48L356.64 334.18Z" fill="#192735" fill-opacity="1.000000" fill-rule="nonzero"/>
		<path id="Vector" d="M336.83 260.85C336.83 260.85 338.29 257.78 337.97 257.57C337.65 257.36 336.47 259.17 336.47 259.17C336.47 259.17 336.58 255.43 336.25 255.54C335.93 255.65 335.72 259.06 335.72 259.06C335.72 259.06 335.51 255.22 335.08 255.33C334.65 255.43 334.86 259.06 334.86 259.06C334.86 259.06 334.33 256.29 333.9 255.97C333.47 255.65 334.22 259.38 334.22 259.38C334.22 259.38 333.36 257.04 333.04 257.14C332.72 257.25 333.89 261.87 333.89 261.87L336.83 260.85Z" fill="#E9A981" fill-opacity="1.000000" fill-rule="nonzero"/>
	</g>
</svg>
